# ter-u32b

name: Terminus Bold 32
family: Terminus
foundry: xos4
copyright: Copyright (C) 2014 Dimitar Toshkov Zhekov
notice: Licensed under the SIL Open Font License, Version 1.1
point-size: 32
weight: bold
spacing: character-cell
offset: 0 -6
encoding: unicode
default-char: u+fffd
converter: monobit v0.12
source-name: ter-u32b.bdf
source-format: BDF v2.1
bdf.MIN-SPACE: 16

u+0000:
char0:
    ................
    ................
    ................
    ................
    ................
    ................
    .@@@@@...@@@@@..
    .@@@@@...@@@@@..
    .@@@.......@@@..
    .@@@.......@@@..
    .@@@.......@@@..
    ................
    ................
    ................
    .@@@.......@@@..
    .@@@.......@@@..
    .@@@.......@@@..
    .@@@.......@@@..
    ................
    ................
    ................
    .@@@.......@@@..
    .@@@.......@@@..
    .@@@.......@@@..
    .@@@@@...@@@@@..
    .@@@@@...@@@@@..
    ................
    ................
    ................
    ................
    ................
    ................

u+0020:
space:
    ................
    ................
    ................
    ................
    ................
    ................
    ................
    ................
    ................
    ................
    ................
    ................
    ................
    ................
    ................
    ................
    ................
    ................
    ................
    ................
    ................
    ................
    ................
    ................
    ................
    ................
    ................
    ................
    ................
    ................
    ................
    ................

u+0021:
exclam:
    ................
    ................
    ................
    ................
    ................
    ................
    ......@@@.......
    ......@@@.......
    ......@@@.......
    ......@@@.......
    ......@@@.......
    ......@@@.......
    ......@@@.......
    ......@@@.......
    ......@@@.......
    ......@@@.......
    ......@@@.......
    ......@@@.......
    ......@@@.......
    ................
    ................
    ................
    ......@@@.......
    ......@@@.......
    ......@@@.......
    ......@@@.......
    ................
    ................
    ................
    ................
    ................
    ................

u+0022:
quotedbl:
    ................
    ................
    ................
    ................
    ...@@@...@@@....
    ...@@@...@@@....
    ...@@@...@@@....
    ...@@@...@@@....
    ...@@@...@@@....
    ...@@@...@@@....
    ................
    ................
    ................
    ................
    ................
    ................
    ................
    ................
    ................
    ................
    ................
    ................
    ................
    ................
    ................
    ................
    ................
    ................
    ................
    ................
    ................
    ................

u+0023:
numbersign:
    ................
    ................
    ................
    ................
    ................
    ................
    ...@@@...@@@....
    ...@@@...@@@....
    ...@@@...@@@....
    ...@@@...@@@....
    ...@@@...@@@....
    .@@@@@@@@@@@@@..
    .@@@@@@@@@@@@@..
    ...@@@...@@@....
    ...@@@...@@@....
    ...@@@...@@@....
    ...@@@...@@@....
    ...@@@...@@@....
    ...@@@...@@@....
    .@@@@@@@@@@@@@..
    .@@@@@@@@@@@@@..
    ...@@@...@@@....
    ...@@@...@@@....
    ...@@@...@@@....
    ...@@@...@@@....
    ...@@@...@@@....
    ................
    ................
    ................
    ................
    ................
    ................

u+0024:
dollar:
    ................
    ................
    ................
    ................
    ......@@@.......
    ......@@@.......
    ......@@@.......
    ...@@@@@@@@@....
    ..@@@@@@@@@@@...
    .@@@@.@@@.@@@@..
    .@@@..@@@..@@@..
    .@@@..@@@.......
    .@@@..@@@.......
    .@@@..@@@.......
    .@@@@.@@@.......
    ..@@@@@@@@@@....
    ...@@@@@@@@@@...
    ......@@@.@@@@..
    ......@@@..@@@..
    ......@@@..@@@..
    ......@@@..@@@..
    .@@@..@@@..@@@..
    .@@@@.@@@.@@@@..
    ..@@@@@@@@@@@...
    ...@@@@@@@@@....
    ......@@@.......
    ......@@@.......
    ......@@@.......
    ................
    ................
    ................
    ................

u+0025:
percent:
    ................
    ................
    ................
    ................
    ................
    ................
    ...@@@@@...@@@..
    ..@@@@@@@..@@@..
    ..@@@.@@@.@@@...
    ..@@@.@@@.@@@...
    ..@@@@@@@@@@....
    ...@@@@@.@@@....
    ........@@@.....
    ........@@@.....
    .......@@@......
    .......@@@......
    ......@@@.......
    ......@@@.......
    .....@@@........
    .....@@@........
    ....@@@.@@@@@...
    ....@@@@@@@@@@..
    ...@@@.@@@.@@@..
    ...@@@.@@@.@@@..
    ..@@@..@@@@@@@..
    ..@@@...@@@@@...
    ................
    ................
    ................
    ................
    ................
    ................

u+0026:
ampersand:
    ................
    ................
    ................
    ................
    ................
    ................
    ....@@@@@@......
    ...@@@@@@@@.....
    ..@@@....@@@....
    ..@@@....@@@....
    ..@@@....@@@....
    ..@@@....@@@....
    ..@@@....@@@....
    ...@@@..@@@.....
    ....@@@@@@......
    ....@@@@@.......
    ...@@@@@@@..@@@.
    ..@@@...@@@.@@@.
    .@@@.....@@@@@..
    .@@@......@@@...
    .@@@......@@@...
    .@@@......@@@...
    .@@@......@@@...
    .@@@@....@@@@@..
    ..@@@@@@@@@.@@@.
    ...@@@@@@@..@@@.
    ................
    ................
    ................
    ................
    ................
    ................

u+0027:
quotesingle:
    ................
    ................
    ................
    ................
    ......@@@.......
    ......@@@.......
    ......@@@.......
    ......@@@.......
    ......@@@.......
    ......@@@.......
    ................
    ................
    ................
    ................
    ................
    ................
    ................
    ................
    ................
    ................
    ................
    ................
    ................
    ................
    ................
    ................
    ................
    ................
    ................
    ................
    ................
    ................

u+0028:
parenleft:
    ................
    ................
    ................
    ................
    ................
    ................
    ........@@@.....
    .......@@@......
    ......@@@.......
    .....@@@........
    .....@@@........
    ....@@@.........
    ....@@@.........
    ....@@@.........
    ....@@@.........
    ....@@@.........
    ....@@@.........
    ....@@@.........
    ....@@@.........
    ....@@@.........
    ....@@@.........
    .....@@@........
    .....@@@........
    ......@@@.......
    .......@@@......
    ........@@@.....
    ................
    ................
    ................
    ................
    ................
    ................

u+0029:
parenright:
    ................
    ................
    ................
    ................
    ................
    ................
    ....@@@.........
    .....@@@........
    ......@@@.......
    .......@@@......
    .......@@@......
    ........@@@.....
    ........@@@.....
    ........@@@.....
    ........@@@.....
    ........@@@.....
    ........@@@.....
    ........@@@.....
    ........@@@.....
    ........@@@.....
    ........@@@.....
    .......@@@......
    .......@@@......
    ......@@@.......
    .....@@@........
    ....@@@.........
    ................
    ................
    ................
    ................
    ................
    ................

u+002a:
asterisk:
    ................
    ................
    ................
    ................
    ................
    ................
    ................
    ................
    ................
    ................
    ..@@@.....@@@...
    ...@@@...@@@....
    ....@@@.@@@.....
    .....@@@@@......
    ......@@@.......
    .@@@@@@@@@@@@@..
    .@@@@@@@@@@@@@..
    ......@@@.......
    .....@@@@@......
    ....@@@.@@@.....
    ...@@@...@@@....
    ..@@@.....@@@...
    ................
    ................
    ................
    ................
    ................
    ................
    ................
    ................
    ................
    ................

u+002b:
plus:
    ................
    ................
    ................
    ................
    ................
    ................
    ................
    ................
    ................
    ................
    ......@@@.......
    ......@@@.......
    ......@@@.......
    ......@@@.......
    ......@@@.......
    .@@@@@@@@@@@@@..
    .@@@@@@@@@@@@@..
    ......@@@.......
    ......@@@.......
    ......@@@.......
    ......@@@.......
    ......@@@.......
    ................
    ................
    ................
    ................
    ................
    ................
    ................
    ................
    ................
    ................

u+002c:
comma:
    ................
    ................
    ................
    ................
    ................
    ................
    ................
    ................
    ................
    ................
    ................
    ................
    ................
    ................
    ................
    ................
    ................
    ................
    ................
    ................
    ................
    ................
    ......@@@.......
    ......@@@.......
    ......@@@.......
    ......@@@.......
    .....@@@........
    ....@@@.........
    ................
    ................
    ................
    ................

u+002d:
hyphen:
    ................
    ................
    ................
    ................
    ................
    ................
    ................
    ................
    ................
    ................
    ................
    ................
    ................
    ................
    ................
    .@@@@@@@@@@@@@..
    .@@@@@@@@@@@@@..
    ................
    ................
    ................
    ................
    ................
    ................
    ................
    ................
    ................
    ................
    ................
    ................
    ................
    ................
    ................

u+002e:
period:
    ................
    ................
    ................
    ................
    ................
    ................
    ................
    ................
    ................
    ................
    ................
    ................
    ................
    ................
    ................
    ................
    ................
    ................
    ................
    ................
    ................
    ................
    ......@@@.......
    ......@@@.......
    ......@@@.......
    ......@@@.......
    ................
    ................
    ................
    ................
    ................
    ................

u+002f:
slash:
    ................
    ................
    ................
    ................
    ................
    ................
    ...........@@@..
    ...........@@@..
    ..........@@@...
    ..........@@@...
    .........@@@....
    .........@@@....
    ........@@@.....
    ........@@@.....
    .......@@@......
    .......@@@......
    ......@@@.......
    ......@@@.......
    .....@@@........
    .....@@@........
    ....@@@.........
    ....@@@.........
    ...@@@..........
    ...@@@..........
    ..@@@...........
    ..@@@...........
    ................
    ................
    ................
    ................
    ................
    ................

u+0030:
zero:
    ................
    ................
    ................
    ................
    ................
    ................
    ...@@@@@@@@@....
    ..@@@@@@@@@@@...
    .@@@@.....@@@@..
    .@@@.......@@@..
    .@@@.......@@@..
    .@@@......@@@@..
    .@@@.....@@@@@..
    .@@@....@@@@@@..
    .@@@...@@@.@@@..
    .@@@..@@@..@@@..
    .@@@.@@@...@@@..
    .@@@@@@....@@@..
    .@@@@@.....@@@..
    .@@@@......@@@..
    .@@@.......@@@..
    .@@@.......@@@..
    .@@@.......@@@..
    .@@@@.....@@@@..
    ..@@@@@@@@@@@...
    ...@@@@@@@@@....
    ................
    ................
    ................
    ................
    ................
    ................

u+0031:
one:
    ................
    ................
    ................
    ................
    ................
    ................
    ......@@@.......
    .....@@@@.......
    ....@@@@@.......
    ...@@@@@@.......
    ...@@@@@@.......
    ......@@@.......
    ......@@@.......
    ......@@@.......
    ......@@@.......
    ......@@@.......
    ......@@@.......
    ......@@@.......
    ......@@@.......
    ......@@@.......
    ......@@@.......
    ......@@@.......
    ......@@@.......
    ......@@@.......
    ...@@@@@@@@@....
    ...@@@@@@@@@....
    ................
    ................
    ................
    ................
    ................
    ................

u+0032:
two:
    ................
    ................
    ................
    ................
    ................
    ................
    ...@@@@@@@@@....
    ..@@@@@@@@@@@...
    .@@@@.....@@@@..
    .@@@.......@@@..
    .@@@.......@@@..
    .@@@.......@@@..
    .@@@.......@@@..
    ...........@@@..
    ..........@@@...
    .........@@@....
    ........@@@.....
    .......@@@......
    ......@@@.......
    .....@@@........
    ....@@@.........
    ...@@@..........
    ..@@@...........
    .@@@............
    .@@@@@@@@@@@@@..
    .@@@@@@@@@@@@@..
    ................
    ................
    ................
    ................
    ................
    ................

u+0033:
three:
    ................
    ................
    ................
    ................
    ................
    ................
    ...@@@@@@@@@....
    ..@@@@@@@@@@@...
    .@@@@.....@@@@..
    .@@@.......@@@..
    .@@@.......@@@..
    ...........@@@..
    ...........@@@..
    ...........@@@..
    ..........@@@@..
    ....@@@@@@@@@...
    ....@@@@@@@@@...
    ..........@@@@..
    ...........@@@..
    ...........@@@..
    ...........@@@..
    .@@@.......@@@..
    .@@@.......@@@..
    .@@@@.....@@@@..
    ..@@@@@@@@@@@...
    ...@@@@@@@@@....
    ................
    ................
    ................
    ................
    ................
    ................

u+0034:
four:
    ................
    ................
    ................
    ................
    ................
    ................
    ...........@@@..
    ..........@@@@..
    .........@@@@@..
    ........@@@@@@..
    .......@@@.@@@..
    ......@@@..@@@..
    .....@@@...@@@..
    ....@@@....@@@..
    ...@@@.....@@@..
    ..@@@......@@@..
    .@@@.......@@@..
    .@@@.......@@@..
    .@@@.......@@@..
    .@@@@@@@@@@@@@..
    .@@@@@@@@@@@@@..
    ...........@@@..
    ...........@@@..
    ...........@@@..
    ...........@@@..
    ...........@@@..
    ................
    ................
    ................
    ................
    ................
    ................

u+0035:
five:
    ................
    ................
    ................
    ................
    ................
    ................
    .@@@@@@@@@@@@@..
    .@@@@@@@@@@@@@..
    .@@@............
    .@@@............
    .@@@............
    .@@@............
    .@@@............
    .@@@............
    .@@@@@@@@@@@....
    .@@@@@@@@@@@@...
    ..........@@@@..
    ...........@@@..
    ...........@@@..
    ...........@@@..
    ...........@@@..
    ...........@@@..
    .@@@.......@@@..
    .@@@@......@@@..
    ..@@@@@@@@@@@...
    ...@@@@@@@@@....
    ................
    ................
    ................
    ................
    ................
    ................

u+0036:
six:
    ................
    ................
    ................
    ................
    ................
    ................
    ...@@@@@@@@@@...
    ..@@@@@@@@@@@...
    .@@@@...........
    .@@@............
    .@@@............
    .@@@............
    .@@@............
    .@@@............
    .@@@@@@@@@@@....
    .@@@@@@@@@@@@...
    .@@@......@@@@..
    .@@@.......@@@..
    .@@@.......@@@..
    .@@@.......@@@..
    .@@@.......@@@..
    .@@@.......@@@..
    .@@@.......@@@..
    .@@@@.....@@@@..
    ..@@@@@@@@@@@...
    ...@@@@@@@@@....
    ................
    ................
    ................
    ................
    ................
    ................

u+0037:
seven:
    ................
    ................
    ................
    ................
    ................
    ................
    .@@@@@@@@@@@@@..
    .@@@@@@@@@@@@@..
    .@@@.......@@@..
    .@@@.......@@@..
    .@@@.......@@@..
    .@@@......@@@...
    ..........@@@...
    .........@@@....
    .........@@@....
    ........@@@.....
    ........@@@.....
    .......@@@......
    .......@@@......
    ......@@@.......
    ......@@@.......
    ......@@@.......
    ......@@@.......
    ......@@@.......
    ......@@@.......
    ......@@@.......
    ................
    ................
    ................
    ................
    ................
    ................

u+0038:
eight:
    ................
    ................
    ................
    ................
    ................
    ................
    ...@@@@@@@@@....
    ..@@@@@@@@@@@...
    .@@@@.....@@@@..
    .@@@.......@@@..
    .@@@.......@@@..
    .@@@.......@@@..
    .@@@.......@@@..
    .@@@.......@@@..
    .@@@@.....@@@@..
    ..@@@@@@@@@@@...
    ..@@@@@@@@@@@...
    .@@@@.....@@@@..
    .@@@.......@@@..
    .@@@.......@@@..
    .@@@.......@@@..
    .@@@.......@@@..
    .@@@.......@@@..
    .@@@@.....@@@@..
    ..@@@@@@@@@@@...
    ...@@@@@@@@@....
    ................
    ................
    ................
    ................
    ................
    ................

u+0039:
nine:
    ................
    ................
    ................
    ................
    ................
    ................
    ...@@@@@@@@@....
    ..@@@@@@@@@@@...
    .@@@@.....@@@@..
    .@@@.......@@@..
    .@@@.......@@@..
    .@@@.......@@@..
    .@@@.......@@@..
    .@@@.......@@@..
    .@@@.......@@@..
    .@@@@......@@@..
    ..@@@@@@@@@@@@..
    ...@@@@@@@@@@@..
    ...........@@@..
    ...........@@@..
    ...........@@@..
    ...........@@@..
    ...........@@@..
    ..........@@@@..
    ..@@@@@@@@@@@...
    ..@@@@@@@@@@....
    ................
    ................
    ................
    ................
    ................
    ................

u+003a:
colon:
    ................
    ................
    ................
    ................
    ................
    ................
    ................
    ................
    ................
    ................
    ................
    ................
    ......@@@.......
    ......@@@.......
    ......@@@.......
    ......@@@.......
    ................
    ................
    ................
    ................
    ................
    ................
    ......@@@.......
    ......@@@.......
    ......@@@.......
    ......@@@.......
    ................
    ................
    ................
    ................
    ................
    ................

u+003b:
semicolon:
    ................
    ................
    ................
    ................
    ................
    ................
    ................
    ................
    ................
    ................
    ................
    ................
    ......@@@.......
    ......@@@.......
    ......@@@.......
    ......@@@.......
    ................
    ................
    ................
    ................
    ................
    ................
    ......@@@.......
    ......@@@.......
    ......@@@.......
    ......@@@.......
    .....@@@........
    ....@@@.........
    ................
    ................
    ................
    ................

u+003c:
less:
    ................
    ................
    ................
    ................
    ................
    ................
    ...........@@@..
    ..........@@@...
    .........@@@....
    ........@@@.....
    .......@@@......
    ......@@@.......
    .....@@@........
    ....@@@.........
    ...@@@..........
    ..@@@...........
    ..@@@...........
    ...@@@..........
    ....@@@.........
    .....@@@........
    ......@@@.......
    .......@@@......
    ........@@@.....
    .........@@@....
    ..........@@@...
    ...........@@@..
    ................
    ................
    ................
    ................
    ................
    ................

u+003d:
equal:
    ................
    ................
    ................
    ................
    ................
    ................
    ................
    ................
    ................
    ................
    ................
    ................
    .@@@@@@@@@@@@@..
    .@@@@@@@@@@@@@..
    ................
    ................
    ................
    ................
    .@@@@@@@@@@@@@..
    .@@@@@@@@@@@@@..
    ................
    ................
    ................
    ................
    ................
    ................
    ................
    ................
    ................
    ................
    ................
    ................

u+003e:
greater:
    ................
    ................
    ................
    ................
    ................
    ................
    ..@@@...........
    ...@@@..........
    ....@@@.........
    .....@@@........
    ......@@@.......
    .......@@@......
    ........@@@.....
    .........@@@....
    ..........@@@...
    ...........@@@..
    ...........@@@..
    ..........@@@...
    .........@@@....
    ........@@@.....
    .......@@@......
    ......@@@.......
    .....@@@........
    ....@@@.........
    ...@@@..........
    ..@@@...........
    ................
    ................
    ................
    ................
    ................
    ................

u+003f:
question:
    ................
    ................
    ................
    ................
    ................
    ................
    ...@@@@@@@@@....
    ..@@@@@@@@@@@...
    .@@@@.....@@@@..
    .@@@.......@@@..
    .@@@.......@@@..
    .@@@.......@@@..
    .@@@.......@@@..
    ..........@@@...
    .........@@@....
    ........@@@.....
    .......@@@......
    ......@@@.......
    ......@@@.......
    ......@@@.......
    ................
    ................
    ......@@@.......
    ......@@@.......
    ......@@@.......
    ......@@@.......
    ................
    ................
    ................
    ................
    ................
    ................

u+0040:
at:
    ................
    ................
    ................
    ................
    ................
    ................
    ...@@@@@@@@@@...
    ..@@@@@@@@@@@@..
    .@@@@.......@@@.
    .@@@.........@@.
    .@@@...@@@@@@@@.
    .@@@..@@@@@@@@@.
    .@@@.@@@@...@@@.
    .@@@.@@@....@@@.
    .@@@.@@@....@@@.
    .@@@.@@@....@@@.
    .@@@.@@@....@@@.
    .@@@.@@@....@@@.
    .@@@.@@@....@@@.
    .@@@.@@@@..@@@@.
    .@@@..@@@@@@@@@.
    .@@@...@@@@@.@@.
    .@@@............
    .@@@@...........
    ..@@@@@@@@@@@@@.
    ...@@@@@@@@@@@@.
    ................
    ................
    ................
    ................
    ................
    ................

u+0041:
A:
    ................
    ................
    ................
    ................
    ................
    ................
    ...@@@@@@@@@....
    ..@@@@@@@@@@@...
    .@@@@.....@@@@..
    .@@@.......@@@..
    .@@@.......@@@..
    .@@@.......@@@..
    .@@@.......@@@..
    .@@@.......@@@..
    .@@@.......@@@..
    .@@@.......@@@..
    .@@@@@@@@@@@@@..
    .@@@@@@@@@@@@@..
    .@@@.......@@@..
    .@@@.......@@@..
    .@@@.......@@@..
    .@@@.......@@@..
    .@@@.......@@@..
    .@@@.......@@@..
    .@@@.......@@@..
    .@@@.......@@@..
    ................
    ................
    ................
    ................
    ................
    ................

u+0042:
B:
    ................
    ................
    ................
    ................
    ................
    ................
    .@@@@@@@@@@@....
    .@@@@@@@@@@@@...
    .@@@......@@@@..
    .@@@.......@@@..
    .@@@.......@@@..
    .@@@.......@@@..
    .@@@.......@@@..
    .@@@......@@@...
    .@@@@@@@@@@@....
    .@@@@@@@@@@@....
    .@@@......@@@...
    .@@@.......@@@..
    .@@@.......@@@..
    .@@@.......@@@..
    .@@@.......@@@..
    .@@@.......@@@..
    .@@@.......@@@..
    .@@@......@@@@..
    .@@@@@@@@@@@@...
    .@@@@@@@@@@@....
    ................
    ................
    ................
    ................
    ................
    ................

u+0043:
C:
    ................
    ................
    ................
    ................
    ................
    ................
    ...@@@@@@@@@....
    ..@@@@@@@@@@@...
    .@@@@.....@@@@..
    .@@@.......@@@..
    .@@@.......@@@..
    .@@@............
    .@@@............
    .@@@............
    .@@@............
    .@@@............
    .@@@............
    .@@@............
    .@@@............
    .@@@............
    .@@@............
    .@@@.......@@@..
    .@@@.......@@@..
    .@@@@.....@@@@..
    ..@@@@@@@@@@@...
    ...@@@@@@@@@....
    ................
    ................
    ................
    ................
    ................
    ................

u+0044:
D:
    ................
    ................
    ................
    ................
    ................
    ................
    .@@@@@@@@@......
    .@@@@@@@@@@@....
    .@@@.....@@@@...
    .@@@......@@@...
    .@@@.......@@@..
    .@@@.......@@@..
    .@@@.......@@@..
    .@@@.......@@@..
    .@@@.......@@@..
    .@@@.......@@@..
    .@@@.......@@@..
    .@@@.......@@@..
    .@@@.......@@@..
    .@@@.......@@@..
    .@@@.......@@@..
    .@@@.......@@@..
    .@@@......@@@...
    .@@@.....@@@@...
    .@@@@@@@@@@@....
    .@@@@@@@@@......
    ................
    ................
    ................
    ................
    ................
    ................

u+0045:
E:
    ................
    ................
    ................
    ................
    ................
    ................
    .@@@@@@@@@@@@@..
    .@@@@@@@@@@@@@..
    .@@@............
    .@@@............
    .@@@............
    .@@@............
    .@@@............
    .@@@............
    .@@@............
    .@@@@@@@@@@.....
    .@@@@@@@@@@.....
    .@@@............
    .@@@............
    .@@@............
    .@@@............
    .@@@............
    .@@@............
    .@@@............
    .@@@@@@@@@@@@@..
    .@@@@@@@@@@@@@..
    ................
    ................
    ................
    ................
    ................
    ................

u+0046:
F:
    ................
    ................
    ................
    ................
    ................
    ................
    .@@@@@@@@@@@@@..
    .@@@@@@@@@@@@@..
    .@@@............
    .@@@............
    .@@@............
    .@@@............
    .@@@............
    .@@@............
    .@@@............
    .@@@@@@@@@@.....
    .@@@@@@@@@@.....
    .@@@............
    .@@@............
    .@@@............
    .@@@............
    .@@@............
    .@@@............
    .@@@............
    .@@@............
    .@@@............
    ................
    ................
    ................
    ................
    ................
    ................

u+0047:
G:
    ................
    ................
    ................
    ................
    ................
    ................
    ...@@@@@@@@@....
    ..@@@@@@@@@@@...
    .@@@@.....@@@@..
    .@@@.......@@@..
    .@@@.......@@@..
    .@@@............
    .@@@............
    .@@@............
    .@@@............
    .@@@...@@@@@@@..
    .@@@...@@@@@@@..
    .@@@.......@@@..
    .@@@.......@@@..
    .@@@.......@@@..
    .@@@.......@@@..
    .@@@.......@@@..
    .@@@.......@@@..
    .@@@@.....@@@@..
    ..@@@@@@@@@@@...
    ...@@@@@@@@@....
    ................
    ................
    ................
    ................
    ................
    ................

u+0048:
H:
    ................
    ................
    ................
    ................
    ................
    ................
    .@@@.......@@@..
    .@@@.......@@@..
    .@@@.......@@@..
    .@@@.......@@@..
    .@@@.......@@@..
    .@@@.......@@@..
    .@@@.......@@@..
    .@@@.......@@@..
    .@@@.......@@@..
    .@@@@@@@@@@@@@..
    .@@@@@@@@@@@@@..
    .@@@.......@@@..
    .@@@.......@@@..
    .@@@.......@@@..
    .@@@.......@@@..
    .@@@.......@@@..
    .@@@.......@@@..
    .@@@.......@@@..
    .@@@.......@@@..
    .@@@.......@@@..
    ................
    ................
    ................
    ................
    ................
    ................

u+0049:
I:
    ................
    ................
    ................
    ................
    ................
    ................
    ....@@@@@@@.....
    ....@@@@@@@.....
    ......@@@.......
    ......@@@.......
    ......@@@.......
    ......@@@.......
    ......@@@.......
    ......@@@.......
    ......@@@.......
    ......@@@.......
    ......@@@.......
    ......@@@.......
    ......@@@.......
    ......@@@.......
    ......@@@.......
    ......@@@.......
    ......@@@.......
    ......@@@.......
    ....@@@@@@@.....
    ....@@@@@@@.....
    ................
    ................
    ................
    ................
    ................
    ................

u+004a:
J:
    ................
    ................
    ................
    ................
    ................
    ................
    ........@@@@@@@.
    ........@@@@@@@.
    ..........@@@...
    ..........@@@...
    ..........@@@...
    ..........@@@...
    ..........@@@...
    ..........@@@...
    ..........@@@...
    ..........@@@...
    ..........@@@...
    ..........@@@...
    ..........@@@...
    ..........@@@...
    .@@@......@@@...
    .@@@......@@@...
    .@@@......@@@...
    .@@@@....@@@@...
    ..@@@@@@@@@@....
    ...@@@@@@@@.....
    ................
    ................
    ................
    ................
    ................
    ................

u+004b:
K:
    ................
    ................
    ................
    ................
    ................
    ................
    .@@@........@@..
    .@@@.......@@@..
    .@@@......@@@...
    .@@@.....@@@....
    .@@@....@@@.....
    .@@@...@@@......
    .@@@..@@@.......
    .@@@.@@@........
    .@@@@@@.........
    .@@@@@..........
    .@@@@@..........
    .@@@@@@.........
    .@@@.@@@........
    .@@@..@@@.......
    .@@@...@@@......
    .@@@....@@@.....
    .@@@.....@@@....
    .@@@......@@@...
    .@@@.......@@@..
    .@@@........@@..
    ................
    ................
    ................
    ................
    ................
    ................

u+004c:
L:
    ................
    ................
    ................
    ................
    ................
    ................
    .@@@............
    .@@@............
    .@@@............
    .@@@............
    .@@@............
    .@@@............
    .@@@............
    .@@@............
    .@@@............
    .@@@............
    .@@@............
    .@@@............
    .@@@............
    .@@@............
    .@@@............
    .@@@............
    .@@@............
    .@@@............
    .@@@@@@@@@@@@@..
    .@@@@@@@@@@@@@..
    ................
    ................
    ................
    ................
    ................
    ................

u+004d:
M:
    ................
    ................
    ................
    ................
    ................
    ................
    .@@@........@@@.
    .@@@........@@@.
    .@@@@......@@@@.
    .@@@@@....@@@@@.
    .@@@@@@..@@@@@@.
    .@@@@@@..@@@@@@.
    .@@@.@@@@@@.@@@.
    .@@@..@@@@..@@@.
    .@@@..@@@@..@@@.
    .@@@...@@...@@@.
    .@@@........@@@.
    .@@@........@@@.
    .@@@........@@@.
    .@@@........@@@.
    .@@@........@@@.
    .@@@........@@@.
    .@@@........@@@.
    .@@@........@@@.
    .@@@........@@@.
    .@@@........@@@.
    ................
    ................
    ................
    ................
    ................
    ................

u+004e:
N:
    ................
    ................
    ................
    ................
    ................
    ................
    .@@@.......@@@..
    .@@@.......@@@..
    .@@@.......@@@..
    .@@@.......@@@..
    .@@@.......@@@..
    .@@@@......@@@..
    .@@@@@.....@@@..
    .@@@@@@....@@@..
    .@@@.@@@...@@@..
    .@@@..@@@..@@@..
    .@@@...@@@.@@@..
    .@@@....@@@@@@..
    .@@@.....@@@@@..
    .@@@......@@@@..
    .@@@.......@@@..
    .@@@.......@@@..
    .@@@.......@@@..
    .@@@.......@@@..
    .@@@.......@@@..
    .@@@.......@@@..
    ................
    ................
    ................
    ................
    ................
    ................

u+004f:
O:
    ................
    ................
    ................
    ................
    ................
    ................
    ...@@@@@@@@@....
    ..@@@@@@@@@@@...
    .@@@@.....@@@@..
    .@@@.......@@@..
    .@@@.......@@@..
    .@@@.......@@@..
    .@@@.......@@@..
    .@@@.......@@@..
    .@@@.......@@@..
    .@@@.......@@@..
    .@@@.......@@@..
    .@@@.......@@@..
    .@@@.......@@@..
    .@@@.......@@@..
    .@@@.......@@@..
    .@@@.......@@@..
    .@@@.......@@@..
    .@@@@.....@@@@..
    ..@@@@@@@@@@@...
    ...@@@@@@@@@....
    ................
    ................
    ................
    ................
    ................
    ................

u+0050:
P:
    ................
    ................
    ................
    ................
    ................
    ................
    .@@@@@@@@@@@....
    .@@@@@@@@@@@@...
    .@@@......@@@@..
    .@@@.......@@@..
    .@@@.......@@@..
    .@@@.......@@@..
    .@@@.......@@@..
    .@@@.......@@@..
    .@@@.......@@@..
    .@@@......@@@@..
    .@@@@@@@@@@@@...
    .@@@@@@@@@@@....
    .@@@............
    .@@@............
    .@@@............
    .@@@............
    .@@@............
    .@@@............
    .@@@............
    .@@@............
    ................
    ................
    ................
    ................
    ................
    ................

u+0051:
Q:
    ................
    ................
    ................
    ................
    ................
    ................
    ...@@@@@@@@@....
    ..@@@@@@@@@@@...
    .@@@@.....@@@@..
    .@@@.......@@@..
    .@@@.......@@@..
    .@@@.......@@@..
    .@@@.......@@@..
    .@@@.......@@@..
    .@@@.......@@@..
    .@@@.......@@@..
    .@@@.......@@@..
    .@@@.......@@@..
    .@@@.......@@@..
    .@@@.......@@@..
    .@@@.......@@@..
    .@@@.......@@@..
    .@@@..@@@..@@@..
    .@@@@..@@@@@@@..
    ..@@@@@@@@@@@...
    ...@@@@@@@@@....
    ..........@@@...
    ...........@@@..
    ................
    ................
    ................
    ................

u+0052:
R:
    ................
    ................
    ................
    ................
    ................
    ................
    .@@@@@@@@@@@....
    .@@@@@@@@@@@@...
    .@@@......@@@@..
    .@@@.......@@@..
    .@@@.......@@@..
    .@@@.......@@@..
    .@@@.......@@@..
    .@@@.......@@@..
    .@@@.......@@@..
    .@@@......@@@@..
    .@@@@@@@@@@@@...
    .@@@@@@@@@@@....
    .@@@@@@.........
    .@@@.@@@........
    .@@@..@@@.......
    .@@@...@@@......
    .@@@....@@@.....
    .@@@.....@@@....
    .@@@......@@@...
    .@@@.......@@@..
    ................
    ................
    ................
    ................
    ................
    ................

u+0053:
S:
    ................
    ................
    ................
    ................
    ................
    ................
    ...@@@@@@@@@....
    ..@@@@@@@@@@@...
    .@@@@.....@@@@..
    .@@@.......@@@..
    .@@@.......@@@..
    .@@@............
    .@@@............
    .@@@............
    .@@@@...........
    ..@@@@@@@@@@....
    ...@@@@@@@@@@...
    ..........@@@@..
    ...........@@@..
    ...........@@@..
    ...........@@@..
    .@@@.......@@@..
    .@@@.......@@@..
    .@@@@.....@@@@..
    ..@@@@@@@@@@@...
    ...@@@@@@@@@....
    ................
    ................
    ................
    ................
    ................
    ................

u+0054:
T:
    ................
    ................
    ................
    ................
    ................
    ................
    .@@@@@@@@@@@@@..
    .@@@@@@@@@@@@@..
    ......@@@.......
    ......@@@.......
    ......@@@.......
    ......@@@.......
    ......@@@.......
    ......@@@.......
    ......@@@.......
    ......@@@.......
    ......@@@.......
    ......@@@.......
    ......@@@.......
    ......@@@.......
    ......@@@.......
    ......@@@.......
    ......@@@.......
    ......@@@.......
    ......@@@.......
    ......@@@.......
    ................
    ................
    ................
    ................
    ................
    ................

u+0055:
U:
    ................
    ................
    ................
    ................
    ................
    ................
    .@@@.......@@@..
    .@@@.......@@@..
    .@@@.......@@@..
    .@@@.......@@@..
    .@@@.......@@@..
    .@@@.......@@@..
    .@@@.......@@@..
    .@@@.......@@@..
    .@@@.......@@@..
    .@@@.......@@@..
    .@@@.......@@@..
    .@@@.......@@@..
    .@@@.......@@@..
    .@@@.......@@@..
    .@@@.......@@@..
    .@@@.......@@@..
    .@@@.......@@@..
    .@@@@.....@@@@..
    ..@@@@@@@@@@@...
    ...@@@@@@@@@....
    ................
    ................
    ................
    ................
    ................
    ................

u+0056:
V:
    ................
    ................
    ................
    ................
    ................
    ................
    .@@@.......@@@..
    .@@@.......@@@..
    .@@@.......@@@..
    .@@@.......@@@..
    .@@@.......@@@..
    ..@@@.....@@@...
    ..@@@.....@@@...
    ..@@@.....@@@...
    ..@@@.....@@@...
    ..@@@.....@@@...
    ...@@@...@@@....
    ...@@@...@@@....
    ...@@@...@@@....
    ...@@@...@@@....
    ....@@@.@@@.....
    ....@@@.@@@.....
    ....@@@.@@@.....
    .....@@@@@......
    .....@@@@@......
    .....@@@@@......
    ................
    ................
    ................
    ................
    ................
    ................

u+0057:
W:
    ................
    ................
    ................
    ................
    ................
    ................
    .@@@........@@@.
    .@@@........@@@.
    .@@@........@@@.
    .@@@........@@@.
    .@@@........@@@.
    .@@@........@@@.
    .@@@........@@@.
    .@@@........@@@.
    .@@@........@@@.
    .@@@........@@@.
    .@@@...@@...@@@.
    .@@@..@@@@..@@@.
    .@@@..@@@@..@@@.
    .@@@.@@@@@@.@@@.
    .@@@@@@..@@@@@@.
    .@@@@@@..@@@@@@.
    .@@@@@....@@@@@.
    .@@@@......@@@@.
    .@@@........@@@.
    .@@@........@@@.
    ................
    ................
    ................
    ................
    ................
    ................

u+0058:
X:
    ................
    ................
    ................
    ................
    ................
    ................
    .@@@.......@@@..
    .@@@.......@@@..
    ..@@@.....@@@...
    ..@@@.....@@@...
    ...@@@...@@@....
    ...@@@...@@@....
    ....@@@.@@@.....
    ....@@@.@@@.....
    .....@@@@@......
    .....@@@@@......
    .....@@@@@......
    .....@@@@@......
    ....@@@.@@@.....
    ....@@@.@@@.....
    ...@@@...@@@....
    ...@@@...@@@....
    ..@@@.....@@@...
    ..@@@.....@@@...
    .@@@.......@@@..
    .@@@.......@@@..
    ................
    ................
    ................
    ................
    ................
    ................

u+0059:
Y:
    ................
    ................
    ................
    ................
    ................
    ................
    .@@@.......@@@..
    .@@@.......@@@..
    .@@@.......@@@..
    ..@@@.....@@@...
    ..@@@.....@@@...
    ...@@@...@@@....
    ...@@@...@@@....
    ....@@@.@@@.....
    ....@@@.@@@.....
    .....@@@@@......
    .....@@@@@......
    ......@@@.......
    ......@@@.......
    ......@@@.......
    ......@@@.......
    ......@@@.......
    ......@@@.......
    ......@@@.......
    ......@@@.......
    ......@@@.......
    ................
    ................
    ................
    ................
    ................
    ................

u+005a:
Z:
    ................
    ................
    ................
    ................
    ................
    ................
    .@@@@@@@@@@@@@..
    .@@@@@@@@@@@@@..
    ...........@@@..
    ...........@@@..
    ...........@@@..
    ..........@@@...
    .........@@@....
    ........@@@.....
    .......@@@......
    ......@@@.......
    .....@@@........
    ....@@@.........
    ...@@@..........
    ..@@@...........
    .@@@............
    .@@@............
    .@@@............
    .@@@............
    .@@@@@@@@@@@@@..
    .@@@@@@@@@@@@@..
    ................
    ................
    ................
    ................
    ................
    ................

u+005b:
bracketleft:
    ................
    ................
    ................
    ................
    ................
    ................
    ....@@@@@@@@....
    ....@@@@@@@@....
    ....@@@.........
    ....@@@.........
    ....@@@.........
    ....@@@.........
    ....@@@.........
    ....@@@.........
    ....@@@.........
    ....@@@.........
    ....@@@.........
    ....@@@.........
    ....@@@.........
    ....@@@.........
    ....@@@.........
    ....@@@.........
    ....@@@.........
    ....@@@.........
    ....@@@@@@@@....
    ....@@@@@@@@....
    ................
    ................
    ................
    ................
    ................
    ................

u+005c:
backslash:
    ................
    ................
    ................
    ................
    ................
    ................
    ..@@@...........
    ..@@@...........
    ...@@@..........
    ...@@@..........
    ....@@@.........
    ....@@@.........
    .....@@@........
    .....@@@........
    ......@@@.......
    ......@@@.......
    .......@@@......
    .......@@@......
    ........@@@.....
    ........@@@.....
    .........@@@....
    .........@@@....
    ..........@@@...
    ..........@@@...
    ...........@@@..
    ...........@@@..
    ................
    ................
    ................
    ................
    ................
    ................

u+005d:
bracketright:
    ................
    ................
    ................
    ................
    ................
    ................
    ....@@@@@@@@....
    ....@@@@@@@@....
    .........@@@....
    .........@@@....
    .........@@@....
    .........@@@....
    .........@@@....
    .........@@@....
    .........@@@....
    .........@@@....
    .........@@@....
    .........@@@....
    .........@@@....
    .........@@@....
    .........@@@....
    .........@@@....
    .........@@@....
    .........@@@....
    ....@@@@@@@@....
    ....@@@@@@@@....
    ................
    ................
    ................
    ................
    ................
    ................

u+005e:
asciicircum:
    ................
    ................
    ................
    ................
    ......@@@.......
    .....@@@@@......
    ....@@@.@@@.....
    ...@@@...@@@....
    ..@@@.....@@@...
    .@@@.......@@@..
    ................
    ................
    ................
    ................
    ................
    ................
    ................
    ................
    ................
    ................
    ................
    ................
    ................
    ................
    ................
    ................
    ................
    ................
    ................
    ................
    ................
    ................

u+005f:
underscore:
    ................
    ................
    ................
    ................
    ................
    ................
    ................
    ................
    ................
    ................
    ................
    ................
    ................
    ................
    ................
    ................
    ................
    ................
    ................
    ................
    ................
    ................
    ................
    ................
    ................
    ................
    ................
    .@@@@@@@@@@@@@..
    .@@@@@@@@@@@@@..
    ................
    ................
    ................

u+0060:
grave:
    ................
    ...@@@..........
    ....@@@.........
    .....@@@........
    ......@@@.......
    ................
    ................
    ................
    ................
    ................
    ................
    ................
    ................
    ................
    ................
    ................
    ................
    ................
    ................
    ................
    ................
    ................
    ................
    ................
    ................
    ................
    ................
    ................
    ................
    ................
    ................
    ................

u+0061:
a:
    ................
    ................
    ................
    ................
    ................
    ................
    ................
    ................
    ................
    ................
    ................
    ................
    ..@@@@@@@@@@....
    ..@@@@@@@@@@@...
    ..........@@@@..
    ...........@@@..
    ...........@@@..
    ...@@@@@@@@@@@..
    ..@@@@@@@@@@@@..
    .@@@@......@@@..
    .@@@.......@@@..
    .@@@.......@@@..
    .@@@.......@@@..
    .@@@@......@@@..
    ..@@@@@@@@@@@@..
    ...@@@@@@@@@@@..
    ................
    ................
    ................
    ................
    ................
    ................

u+0062:
b:
    ................
    ................
    ................
    ................
    ................
    ................
    .@@@............
    .@@@............
    .@@@............
    .@@@............
    .@@@............
    .@@@............
    .@@@@@@@@@@@....
    .@@@@@@@@@@@@...
    .@@@......@@@@..
    .@@@.......@@@..
    .@@@.......@@@..
    .@@@.......@@@..
    .@@@.......@@@..
    .@@@.......@@@..
    .@@@.......@@@..
    .@@@.......@@@..
    .@@@.......@@@..
    .@@@......@@@@..
    .@@@@@@@@@@@@...
    .@@@@@@@@@@@....
    ................
    ................
    ................
    ................
    ................
    ................

u+0063:
c:
    ................
    ................
    ................
    ................
    ................
    ................
    ................
    ................
    ................
    ................
    ................
    ................
    ...@@@@@@@@@....
    ..@@@@@@@@@@@...
    .@@@@.....@@@@..
    .@@@.......@@@..
    .@@@............
    .@@@............
    .@@@............
    .@@@............
    .@@@............
    .@@@............
    .@@@.......@@@..
    .@@@@.....@@@@..
    ..@@@@@@@@@@@...
    ...@@@@@@@@@....
    ................
    ................
    ................
    ................
    ................
    ................

u+0064:
d:
    ................
    ................
    ................
    ................
    ................
    ................
    ...........@@@..
    ...........@@@..
    ...........@@@..
    ...........@@@..
    ...........@@@..
    ...........@@@..
    ...@@@@@@@@@@@..
    ..@@@@@@@@@@@@..
    .@@@@......@@@..
    .@@@.......@@@..
    .@@@.......@@@..
    .@@@.......@@@..
    .@@@.......@@@..
    .@@@.......@@@..
    .@@@.......@@@..
    .@@@.......@@@..
    .@@@.......@@@..
    .@@@@......@@@..
    ..@@@@@@@@@@@@..
    ...@@@@@@@@@@@..
    ................
    ................
    ................
    ................
    ................
    ................

u+0065:
e:
    ................
    ................
    ................
    ................
    ................
    ................
    ................
    ................
    ................
    ................
    ................
    ................
    ...@@@@@@@@@....
    ..@@@@@@@@@@@...
    .@@@@.....@@@@..
    .@@@.......@@@..
    .@@@.......@@@..
    .@@@.......@@@..
    .@@@@@@@@@@@@@..
    .@@@@@@@@@@@@@..
    .@@@............
    .@@@............
    .@@@............
    .@@@@......@@@..
    ..@@@@@@@@@@@@..
    ...@@@@@@@@@@...
    ................
    ................
    ................
    ................
    ................
    ................

u+0066:
f:
    ................
    ................
    ................
    ................
    ................
    ................
    ........@@@@@@@.
    .......@@@@@@@@.
    ......@@@@......
    ......@@@.......
    ......@@@.......
    ......@@@.......
    ..@@@@@@@@@@@...
    ..@@@@@@@@@@@...
    ......@@@.......
    ......@@@.......
    ......@@@.......
    ......@@@.......
    ......@@@.......
    ......@@@.......
    ......@@@.......
    ......@@@.......
    ......@@@.......
    ......@@@.......
    ......@@@.......
    ......@@@.......
    ................
    ................
    ................
    ................
    ................
    ................

u+0067:
g:
    ................
    ................
    ................
    ................
    ................
    ................
    ................
    ................
    ................
    ................
    ................
    ................
    ...@@@@@@@@@@@..
    ..@@@@@@@@@@@@..
    .@@@@......@@@..
    .@@@.......@@@..
    .@@@.......@@@..
    .@@@.......@@@..
    .@@@.......@@@..
    .@@@.......@@@..
    .@@@.......@@@..
    .@@@.......@@@..
    .@@@.......@@@..
    .@@@@......@@@..
    ..@@@@@@@@@@@@..
    ...@@@@@@@@@@@..
    ...........@@@..
    ...........@@@..
    ...........@@@..
    ..@@@@@@@@@@@...
    ..@@@@@@@@@@....
    ................

u+0068:
h:
    ................
    ................
    ................
    ................
    ................
    ................
    .@@@............
    .@@@............
    .@@@............
    .@@@............
    .@@@............
    .@@@............
    .@@@@@@@@@@@....
    .@@@@@@@@@@@@...
    .@@@......@@@@..
    .@@@.......@@@..
    .@@@.......@@@..
    .@@@.......@@@..
    .@@@.......@@@..
    .@@@.......@@@..
    .@@@.......@@@..
    .@@@.......@@@..
    .@@@.......@@@..
    .@@@.......@@@..
    .@@@.......@@@..
    .@@@.......@@@..
    ................
    ................
    ................
    ................
    ................
    ................

u+0069:
i:
    ................
    ................
    ................
    ................
    ................
    ................
    ......@@@.......
    ......@@@.......
    ......@@@.......
    ......@@@.......
    ................
    ................
    ....@@@@@.......
    ....@@@@@.......
    ......@@@.......
    ......@@@.......
    ......@@@.......
    ......@@@.......
    ......@@@.......
    ......@@@.......
    ......@@@.......
    ......@@@.......
    ......@@@.......
    ......@@@.......
    ....@@@@@@@.....
    ....@@@@@@@.....
    ................
    ................
    ................
    ................
    ................
    ................

u+006a:
j:
    ................
    ................
    ................
    ................
    ................
    ................
    ..........@@@...
    ..........@@@...
    ..........@@@...
    ..........@@@...
    ................
    ................
    ........@@@@@...
    ........@@@@@...
    ..........@@@...
    ..........@@@...
    ..........@@@...
    ..........@@@...
    ..........@@@...
    ..........@@@...
    ..........@@@...
    ..........@@@...
    ..........@@@...
    ..........@@@...
    ..........@@@...
    ..........@@@...
    ..@@@.....@@@...
    ..@@@.....@@@...
    ..@@@@...@@@@...
    ...@@@@@@@@@....
    ....@@@@@@@.....
    ................

u+006b:
k:
    ................
    ................
    ................
    ................
    ................
    ................
    ..@@@...........
    ..@@@...........
    ..@@@...........
    ..@@@...........
    ..@@@...........
    ..@@@...........
    ..@@@......@@@..
    ..@@@.....@@@...
    ..@@@....@@@....
    ..@@@...@@@.....
    ..@@@..@@@......
    ..@@@.@@@.......
    ..@@@@@@........
    ..@@@@@@........
    ..@@@.@@@.......
    ..@@@..@@@......
    ..@@@...@@@.....
    ..@@@....@@@....
    ..@@@.....@@@...
    ..@@@......@@@..
    ................
    ................
    ................
    ................
    ................
    ................

u+006c:
l:
    ................
    ................
    ................
    ................
    ................
    ................
    ....@@@@@.......
    ....@@@@@.......
    ......@@@.......
    ......@@@.......
    ......@@@.......
    ......@@@.......
    ......@@@.......
    ......@@@.......
    ......@@@.......
    ......@@@.......
    ......@@@.......
    ......@@@.......
    ......@@@.......
    ......@@@.......
    ......@@@.......
    ......@@@.......
    ......@@@.......
    ......@@@.......
    ....@@@@@@@.....
    ....@@@@@@@.....
    ................
    ................
    ................
    ................
    ................
    ................

u+006d:
m:
    ................
    ................
    ................
    ................
    ................
    ................
    ................
    ................
    ................
    ................
    ................
    ................
    .@@@@@@@@@@@....
    .@@@@@@@@@@@@...
    .@@@..@@@.@@@@..
    .@@@..@@@..@@@..
    .@@@..@@@..@@@..
    .@@@..@@@..@@@..
    .@@@..@@@..@@@..
    .@@@..@@@..@@@..
    .@@@..@@@..@@@..
    .@@@..@@@..@@@..
    .@@@..@@@..@@@..
    .@@@..@@@..@@@..
    .@@@..@@@..@@@..
    .@@@..@@@..@@@..
    ................
    ................
    ................
    ................
    ................
    ................

u+006e:
n:
    ................
    ................
    ................
    ................
    ................
    ................
    ................
    ................
    ................
    ................
    ................
    ................
    .@@@@@@@@@@@....
    .@@@@@@@@@@@@...
    .@@@......@@@@..
    .@@@.......@@@..
    .@@@.......@@@..
    .@@@.......@@@..
    .@@@.......@@@..
    .@@@.......@@@..
    .@@@.......@@@..
    .@@@.......@@@..
    .@@@.......@@@..
    .@@@.......@@@..
    .@@@.......@@@..
    .@@@.......@@@..
    ................
    ................
    ................
    ................
    ................
    ................

u+006f:
o:
    ................
    ................
    ................
    ................
    ................
    ................
    ................
    ................
    ................
    ................
    ................
    ................
    ...@@@@@@@@@....
    ..@@@@@@@@@@@...
    .@@@@.....@@@@..
    .@@@.......@@@..
    .@@@.......@@@..
    .@@@.......@@@..
    .@@@.......@@@..
    .@@@.......@@@..
    .@@@.......@@@..
    .@@@.......@@@..
    .@@@.......@@@..
    .@@@@.....@@@@..
    ..@@@@@@@@@@@...
    ...@@@@@@@@@....
    ................
    ................
    ................
    ................
    ................
    ................

u+0070:
p:
    ................
    ................
    ................
    ................
    ................
    ................
    ................
    ................
    ................
    ................
    ................
    ................
    .@@@@@@@@@@@....
    .@@@@@@@@@@@@...
    .@@@......@@@@..
    .@@@.......@@@..
    .@@@.......@@@..
    .@@@.......@@@..
    .@@@.......@@@..
    .@@@.......@@@..
    .@@@.......@@@..
    .@@@.......@@@..
    .@@@.......@@@..
    .@@@......@@@@..
    .@@@@@@@@@@@@...
    .@@@@@@@@@@@....
    .@@@............
    .@@@............
    .@@@............
    .@@@............
    .@@@............
    ................

u+0071:
q:
    ................
    ................
    ................
    ................
    ................
    ................
    ................
    ................
    ................
    ................
    ................
    ................
    ...@@@@@@@@@@@..
    ..@@@@@@@@@@@@..
    .@@@@......@@@..
    .@@@.......@@@..
    .@@@.......@@@..
    .@@@.......@@@..
    .@@@.......@@@..
    .@@@.......@@@..
    .@@@.......@@@..
    .@@@.......@@@..
    .@@@.......@@@..
    .@@@@......@@@..
    ..@@@@@@@@@@@@..
    ...@@@@@@@@@@@..
    ...........@@@..
    ...........@@@..
    ...........@@@..
    ...........@@@..
    ...........@@@..
    ................

u+0072:
r:
    ................
    ................
    ................
    ................
    ................
    ................
    ................
    ................
    ................
    ................
    ................
    ................
    .@@@..@@@@@@@@..
    .@@@.@@@@@@@@@..
    .@@@@@@.........
    .@@@@@..........
    .@@@@...........
    .@@@............
    .@@@............
    .@@@............
    .@@@............
    .@@@............
    .@@@............
    .@@@............
    .@@@............
    .@@@............
    ................
    ................
    ................
    ................
    ................
    ................

u+0073:
s:
    ................
    ................
    ................
    ................
    ................
    ................
    ................
    ................
    ................
    ................
    ................
    ................
    ...@@@@@@@@@....
    ..@@@@@@@@@@@...
    .@@@@.....@@@@..
    .@@@............
    .@@@............
    .@@@@...........
    ..@@@@@@@@@@....
    ...@@@@@@@@@@...
    ..........@@@@..
    ...........@@@..
    ...........@@@..
    .@@@@.....@@@@..
    ..@@@@@@@@@@@...
    ...@@@@@@@@@....
    ................
    ................
    ................
    ................
    ................
    ................

u+0074:
t:
    ................
    ................
    ................
    ................
    ................
    ................
    .....@@@........
    .....@@@........
    .....@@@........
    .....@@@........
    .....@@@........
    .....@@@........
    .@@@@@@@@@@@....
    .@@@@@@@@@@@....
    .....@@@........
    .....@@@........
    .....@@@........
    .....@@@........
    .....@@@........
    .....@@@........
    .....@@@........
    .....@@@........
    .....@@@........
    .....@@@@.......
    ......@@@@@@@@..
    .......@@@@@@@..
    ................
    ................
    ................
    ................
    ................
    ................

u+0075:
u:
    ................
    ................
    ................
    ................
    ................
    ................
    ................
    ................
    ................
    ................
    ................
    ................
    .@@@.......@@@..
    .@@@.......@@@..
    .@@@.......@@@..
    .@@@.......@@@..
    .@@@.......@@@..
    .@@@.......@@@..
    .@@@.......@@@..
    .@@@.......@@@..
    .@@@.......@@@..
    .@@@.......@@@..
    .@@@.......@@@..
    .@@@@......@@@..
    ..@@@@@@@@@@@@..
    ...@@@@@@@@@@@..
    ................
    ................
    ................
    ................
    ................
    ................

u+0076:
v:
    ................
    ................
    ................
    ................
    ................
    ................
    ................
    ................
    ................
    ................
    ................
    ................
    .@@@.......@@@..
    .@@@.......@@@..
    .@@@.......@@@..
    ..@@@.....@@@...
    ..@@@.....@@@...
    ..@@@.....@@@...
    ...@@@...@@@....
    ...@@@...@@@....
    ...@@@...@@@....
    ....@@@.@@@.....
    ....@@@.@@@.....
    .....@@@@@......
    .....@@@@@......
    .....@@@@@......
    ................
    ................
    ................
    ................
    ................
    ................

u+0077:
w:
    ................
    ................
    ................
    ................
    ................
    ................
    ................
    ................
    ................
    ................
    ................
    ................
    .@@@.......@@@..
    .@@@.......@@@..
    .@@@.......@@@..
    .@@@.......@@@..
    .@@@..@@@..@@@..
    .@@@..@@@..@@@..
    .@@@..@@@..@@@..
    .@@@..@@@..@@@..
    .@@@..@@@..@@@..
    .@@@..@@@..@@@..
    .@@@..@@@..@@@..
    .@@@@.@@@.@@@@..
    ..@@@@@@@@@@@...
    ...@@@@@@@@@....
    ................
    ................
    ................
    ................
    ................
    ................

u+0078:
x:
    ................
    ................
    ................
    ................
    ................
    ................
    ................
    ................
    ................
    ................
    ................
    ................
    .@@@.......@@@..
    .@@@.......@@@..
    .@@@.......@@@..
    ..@@@.....@@@...
    ...@@@...@@@....
    ....@@@.@@@.....
    .....@@@@@......
    .....@@@@@......
    ....@@@.@@@.....
    ...@@@...@@@....
    ..@@@.....@@@...
    .@@@.......@@@..
    .@@@.......@@@..
    .@@@.......@@@..
    ................
    ................
    ................
    ................
    ................
    ................

u+0079:
y:
    ................
    ................
    ................
    ................
    ................
    ................
    ................
    ................
    ................
    ................
    ................
    ................
    .@@@.......@@@..
    .@@@.......@@@..
    .@@@.......@@@..
    .@@@.......@@@..
    .@@@.......@@@..
    .@@@.......@@@..
    .@@@.......@@@..
    .@@@.......@@@..
    .@@@.......@@@..
    .@@@.......@@@..
    .@@@.......@@@..
    .@@@@......@@@..
    ..@@@@@@@@@@@@..
    ...@@@@@@@@@@@..
    ...........@@@..
    ...........@@@..
    ..........@@@@..
    ..@@@@@@@@@@@...
    ..@@@@@@@@@@....
    ................

u+007a:
z:
    ................
    ................
    ................
    ................
    ................
    ................
    ................
    ................
    ................
    ................
    ................
    ................
    .@@@@@@@@@@@@@..
    .@@@@@@@@@@@@@..
    ..........@@@...
    .........@@@....
    ........@@@.....
    .......@@@......
    ......@@@.......
    .....@@@........
    ....@@@.........
    ...@@@..........
    ..@@@...........
    .@@@............
    .@@@@@@@@@@@@@..
    .@@@@@@@@@@@@@..
    ................
    ................
    ................
    ................
    ................
    ................

u+007b:
braceleft:
    ................
    ................
    ................
    ................
    ................
    ................
    .......@@@@@....
    ......@@@@@@....
    .....@@@@.......
    .....@@@........
    .....@@@........
    .....@@@........
    .....@@@........
    .....@@@........
    .....@@@........
    ..@@@@@.........
    ..@@@@@.........
    .....@@@........
    .....@@@........
    .....@@@........
    .....@@@........
    .....@@@........
    .....@@@........
    .....@@@@.......
    ......@@@@@@....
    .......@@@@@....
    ................
    ................
    ................
    ................
    ................
    ................

u+007c:
bar:
    ................
    ................
    ................
    ................
    ................
    ................
    ......@@@.......
    ......@@@.......
    ......@@@.......
    ......@@@.......
    ......@@@.......
    ......@@@.......
    ......@@@.......
    ......@@@.......
    ......@@@.......
    ......@@@.......
    ......@@@.......
    ......@@@.......
    ......@@@.......
    ......@@@.......
    ......@@@.......
    ......@@@.......
    ......@@@.......
    ......@@@.......
    ......@@@.......
    ......@@@.......
    ................
    ................
    ................
    ................
    ................
    ................

u+007d:
braceright:
    ................
    ................
    ................
    ................
    ................
    ................
    ..@@@@@.........
    ..@@@@@@........
    .....@@@@.......
    ......@@@.......
    ......@@@.......
    ......@@@.......
    ......@@@.......
    ......@@@.......
    ......@@@.......
    .......@@@@@....
    .......@@@@@....
    ......@@@.......
    ......@@@.......
    ......@@@.......
    ......@@@.......
    ......@@@.......
    ......@@@.......
    .....@@@@.......
    ..@@@@@@........
    ..@@@@@.........
    ................
    ................
    ................
    ................
    ................
    ................

u+007e:
asciitilde:
    ................
    ................
    ................
    ................
    ...@@@@....@@@..
    ..@@@@@@...@@@..
    .@@@.@@@@..@@@..
    .@@@..@@@@.@@@..
    .@@@...@@@@@@...
    .@@@....@@@@....
    ................
    ................
    ................
    ................
    ................
    ................
    ................
    ................
    ................
    ................
    ................
    ................
    ................
    ................
    ................
    ................
    ................
    ................
    ................
    ................
    ................
    ................

u+00a0:
nbspace:
    ................
    ................
    ................
    ................
    ................
    ................
    ................
    ................
    ................
    ................
    ................
    ................
    ................
    ................
    ................
    ................
    ................
    ................
    ................
    ................
    ................
    ................
    ................
    ................
    ................
    ................
    ................
    ................
    ................
    ................
    ................
    ................

u+00a1:
exclamdown:
    ................
    ................
    ................
    ................
    ................
    ................
    ......@@@.......
    ......@@@.......
    ......@@@.......
    ......@@@.......
    ................
    ................
    ......@@@.......
    ......@@@.......
    ......@@@.......
    ......@@@.......
    ......@@@.......
    ......@@@.......
    ......@@@.......
    ......@@@.......
    ......@@@.......
    ......@@@.......
    ......@@@.......
    ......@@@.......
    ......@@@.......
    ......@@@.......
    ................
    ................
    ................
    ................
    ................
    ................

u+00a2:
cent:
    ................
    ................
    ................
    ................
    ................
    ................
    ................
    ................
    ................
    ......@@@.......
    ......@@@.......
    ......@@@.......
    ...@@@@@@@@@....
    ..@@@@@@@@@@@...
    .@@@@.@@@.@@@@..
    .@@@..@@@..@@@..
    .@@@..@@@.......
    .@@@..@@@.......
    .@@@..@@@.......
    .@@@..@@@.......
    .@@@..@@@.......
    .@@@..@@@.......
    .@@@..@@@..@@@..
    .@@@@.@@@.@@@@..
    ..@@@@@@@@@@@...
    ...@@@@@@@@@....
    ......@@@.......
    ......@@@.......
    ......@@@.......
    ................
    ................
    ................

u+00a3:
sterling:
    ................
    ................
    ................
    ................
    ................
    ................
    .....@@@@@@.....
    ....@@@@@@@@....
    ...@@@@..@@@@...
    ...@@@....@@@...
    ...@@@..........
    ...@@@..........
    ...@@@..........
    ...@@@..........
    ...@@@..........
    .@@@@@@@@@@.....
    .@@@@@@@@@@.....
    ...@@@..........
    ...@@@..........
    ...@@@..........
    ...@@@..........
    ...@@@..........
    ...@@@.....@@@..
    ...@@@.....@@@..
    .@@@@@@@@@@@@@..
    .@@@@@@@@@@@@@..
    ................
    ................
    ................
    ................
    ................
    ................

u+00a4:
currency:
    ................
    ................
    ................
    ................
    ................
    ................
    ................
    ................
    ................
    .@@@.......@@@..
    ..@@@.....@@@...
    ...@@@@@@@@@....
    ...@@@@@@@@@....
    ..@@@.....@@@...
    ..@@@.....@@@...
    ..@@@.....@@@...
    ..@@@.....@@@...
    ..@@@.....@@@...
    ..@@@.....@@@...
    ...@@@@@@@@@....
    ...@@@@@@@@@....
    ..@@@.....@@@...
    .@@@.......@@@..
    ................
    ................
    ................
    ................
    ................
    ................
    ................
    ................
    ................

u+00a5:
yen:
    ................
    ................
    ................
    ................
    ................
    ................
    .@@@.......@@@..
    .@@@.......@@@..
    ..@@@.....@@@...
    ..@@@.....@@@...
    ...@@@...@@@....
    ...@@@...@@@....
    ....@@@.@@@.....
    ....@@@.@@@.....
    .....@@@@@......
    .....@@@@@......
    ......@@@.......
    ......@@@.......
    ..@@@@@@@@@@@...
    ..@@@@@@@@@@@...
    ......@@@.......
    ......@@@.......
    ..@@@@@@@@@@@...
    ..@@@@@@@@@@@...
    ......@@@.......
    ......@@@.......
    ................
    ................
    ................
    ................
    ................
    ................

u+00a6:
brokenbar:
    ................
    ................
    ................
    ................
    ................
    ................
    ......@@@.......
    ......@@@.......
    ......@@@.......
    ......@@@.......
    ......@@@.......
    ......@@@.......
    ......@@@.......
    ......@@@.......
    ................
    ................
    ................
    ................
    ......@@@.......
    ......@@@.......
    ......@@@.......
    ......@@@.......
    ......@@@.......
    ......@@@.......
    ......@@@.......
    ......@@@.......
    ................
    ................
    ................
    ................
    ................
    ................

u+00a7:
section:
    ................
    ................
    ................
    ................
    .....@@@@@@.....
    ....@@@@@@@@....
    ...@@@@..@@@@...
    ...@@@....@@@...
    ...@@@..........
    ...@@@@.........
    ....@@@@@@......
    ....@@@@@@@.....
    ...@@@..@@@@....
    ...@@@...@@@@...
    ...@@@....@@@...
    ...@@@....@@@...
    ...@@@....@@@...
    ...@@@@...@@@...
    ....@@@@..@@@...
    .....@@@@@@@....
    ......@@@@@@....
    .........@@@@...
    ..........@@@...
    ...@@@....@@@...
    ...@@@@..@@@@...
    ....@@@@@@@@....
    .....@@@@@@.....
    ................
    ................
    ................
    ................
    ................

u+00a8:
dieresis:
    ................
    ...@@@...@@@....
    ...@@@...@@@....
    ...@@@...@@@....
    ...@@@...@@@....
    ................
    ................
    ................
    ................
    ................
    ................
    ................
    ................
    ................
    ................
    ................
    ................
    ................
    ................
    ................
    ................
    ................
    ................
    ................
    ................
    ................
    ................
    ................
    ................
    ................
    ................
    ................

u+00a9:
copyright:
    ................
    ................
    ................
    ................
    ................
    ................
    ................
    ................
    ...@@@@@@@@@@...
    ..@@@@@@@@@@@@..
    .@@@........@@@.
    .@@..@@@@@@..@@.
    .@@.@@@@@@@@.@@.
    .@@.@@@..@@@.@@.
    .@@.@@@......@@.
    .@@.@@@......@@.
    .@@.@@@......@@.
    .@@.@@@......@@.
    .@@.@@@..@@@.@@.
    .@@.@@@@@@@@.@@.
    .@@..@@@@@@..@@.
    .@@@........@@@.
    ..@@@@@@@@@@@@..
    ...@@@@@@@@@@...
    ................
    ................
    ................
    ................
    ................
    ................
    ................
    ................

u+00aa:
ordfeminine:
    ................
    ................
    ...@@@@@@@@.....
    ...@@@@@@@@@....
    ..........@@@...
    ..........@@@...
    ....@@@@@@@@@...
    ...@@@@@@@@@@...
    ..@@@.....@@@...
    ..@@@.....@@@...
    ..@@@.....@@@...
    ...@@@@@@@@@@...
    ....@@@@@@@@@...
    ................
    ................
    ..@@@@@@@@@@@...
    ..@@@@@@@@@@@...
    ................
    ................
    ................
    ................
    ................
    ................
    ................
    ................
    ................
    ................
    ................
    ................
    ................
    ................
    ................

u+00ab:
guillemotleft:
    ................
    ................
    ................
    ................
    ................
    ................
    ................
    ................
    ................
    ................
    ................
    ................
    .......@@@..@@@.
    ......@@@..@@@..
    .....@@@..@@@...
    ....@@@..@@@....
    ...@@@..@@@.....
    ..@@@..@@@......
    .@@@..@@@.......
    .@@@..@@@.......
    ..@@@..@@@......
    ...@@@..@@@.....
    ....@@@..@@@....
    .....@@@..@@@...
    ......@@@..@@@..
    .......@@@..@@@.
    ................
    ................
    ................
    ................
    ................
    ................

u+00ac:
logicalnot:
    ................
    ................
    ................
    ................
    ................
    ................
    ................
    ................
    ................
    ................
    ................
    ................
    .@@@@@@@@@@@@@..
    .@@@@@@@@@@@@@..
    ...........@@@..
    ...........@@@..
    ...........@@@..
    ...........@@@..
    ...........@@@..
    ...........@@@..
    ................
    ................
    ................
    ................
    ................
    ................
    ................
    ................
    ................
    ................
    ................
    ................

u+00ad:
softhyphen:
    ................
    ................
    ................
    ................
    ................
    ................
    ................
    ................
    ................
    ................
    ................
    ................
    ................
    ................
    ................
    ..@@@@@@@@@@@...
    ..@@@@@@@@@@@...
    ................
    ................
    ................
    ................
    ................
    ................
    ................
    ................
    ................
    ................
    ................
    ................
    ................
    ................
    ................

u+00ae:
registered:
    ................
    ................
    ................
    ................
    ................
    ................
    ................
    ................
    ...@@@@@@@@@@...
    ..@@@@@@@@@@@@..
    .@@@........@@@.
    .@@.@@@@@@@..@@.
    .@@.@@@@@@@@.@@.
    .@@.@@@..@@@.@@.
    .@@.@@@..@@@.@@.
    .@@.@@@..@@@.@@.
    .@@.@@@@@@@..@@.
    .@@.@@@@@@...@@.
    .@@.@@@@@@...@@.
    .@@.@@@.@@@..@@.
    .@@.@@@..@@@.@@.
    .@@@........@@@.
    ..@@@@@@@@@@@@..
    ...@@@@@@@@@@...
    ................
    ................
    ................
    ................
    ................
    ................
    ................
    ................

u+00af:
macron:
    ................
    ................
    ...@@@@@@@@@....
    ...@@@@@@@@@....
    ................
    ................
    ................
    ................
    ................
    ................
    ................
    ................
    ................
    ................
    ................
    ................
    ................
    ................
    ................
    ................
    ................
    ................
    ................
    ................
    ................
    ................
    ................
    ................
    ................
    ................
    ................
    ................

u+00b0:
degree:
    ................
    ................
    ................
    ................
    ....@@@@@@@.....
    ...@@@@@@@@@....
    ...@@@...@@@....
    ...@@@...@@@....
    ...@@@...@@@....
    ...@@@...@@@....
    ...@@@@@@@@@....
    ....@@@@@@@.....
    ................
    ................
    ................
    ................
    ................
    ................
    ................
    ................
    ................
    ................
    ................
    ................
    ................
    ................
    ................
    ................
    ................
    ................
    ................
    ................

u+00b1:
plusminus:
    ................
    ................
    ................
    ................
    ................
    ................
    ................
    ................
    ................
    ................
    ......@@@.......
    ......@@@.......
    ......@@@.......
    ......@@@.......
    ......@@@.......
    .@@@@@@@@@@@@@..
    .@@@@@@@@@@@@@..
    ......@@@.......
    ......@@@.......
    ......@@@.......
    ......@@@.......
    ......@@@.......
    ................
    ................
    .@@@@@@@@@@@@@..
    .@@@@@@@@@@@@@..
    ................
    ................
    ................
    ................
    ................
    ................

u+00b2:
twosuperior:
    ................
    ................
    ................
    ................
    .....@@@@@@.....
    ....@@@@@@@@....
    ....@@@..@@@....
    ....@@@..@@@....
    ........@@@.....
    .......@@@......
    ......@@@.......
    .....@@@@@@@....
    ....@@@@@@@@....
    ................
    ................
    ................
    ................
    ................
    ................
    ................
    ................
    ................
    ................
    ................
    ................
    ................
    ................
    ................
    ................
    ................
    ................
    ................

u+00b3:
threesuperior:
    ................
    ................
    ................
    ................
    ....@@@@@@@.....
    ...@@@@@@@@@....
    ...@@@...@@@....
    ......@@@@@.....
    ......@@@@@.....
    .........@@@....
    ...@@@...@@@....
    ...@@@@@@@@@....
    ....@@@@@@@.....
    ................
    ................
    ................
    ................
    ................
    ................
    ................
    ................
    ................
    ................
    ................
    ................
    ................
    ................
    ................
    ................
    ................
    ................
    ................

u+00b4:
acute:
    ................
    .........@@@....
    ........@@@.....
    .......@@@......
    ......@@@.......
    ................
    ................
    ................
    ................
    ................
    ................
    ................
    ................
    ................
    ................
    ................
    ................
    ................
    ................
    ................
    ................
    ................
    ................
    ................
    ................
    ................
    ................
    ................
    ................
    ................
    ................
    ................

u+00b5:
mu:
    ................
    ................
    ................
    ................
    ................
    ................
    ................
    ................
    ................
    ................
    ................
    ................
    .@@@.......@@@..
    .@@@.......@@@..
    .@@@.......@@@..
    .@@@.......@@@..
    .@@@.......@@@..
    .@@@.......@@@..
    .@@@.......@@@..
    .@@@.......@@@..
    .@@@.......@@@..
    .@@@......@@@@..
    .@@@.....@@@@@..
    .@@@....@@@@@@..
    .@@@@@@@@@.@@@..
    .@@@@@@@@..@@@..
    .@@@............
    .@@@............
    .@@@............
    .@@@............
    .@@@............
    ................

u+00b6:
paragraph:
    ................
    ................
    ................
    ................
    ................
    ................
    ...@@@@@@@@@@@@.
    ..@@@@@@@@@@@@@.
    .@@@@..@@@..@@@.
    .@@@...@@@..@@@.
    .@@@...@@@..@@@.
    .@@@...@@@..@@@.
    .@@@...@@@..@@@.
    .@@@...@@@..@@@.
    .@@@@..@@@..@@@.
    ..@@@@@@@@..@@@.
    ...@@@@@@@..@@@.
    .......@@@..@@@.
    .......@@@..@@@.
    .......@@@..@@@.
    .......@@@..@@@.
    .......@@@..@@@.
    .......@@@..@@@.
    .......@@@..@@@.
    .......@@@..@@@.
    .......@@@..@@@.
    ................
    ................
    ................
    ................
    ................
    ................

u+00b7:
periodcentered:
    ................
    ................
    ................
    ................
    ................
    ................
    ................
    ................
    ................
    ................
    ................
    ................
    ................
    ................
    ......@@@.......
    ......@@@.......
    ......@@@.......
    ......@@@.......
    ................
    ................
    ................
    ................
    ................
    ................
    ................
    ................
    ................
    ................
    ................
    ................
    ................
    ................

u+00b8:
cedilla:
    ................
    ................
    ................
    ................
    ................
    ................
    ................
    ................
    ................
    ................
    ................
    ................
    ................
    ................
    ................
    ................
    ................
    ................
    ................
    ................
    ................
    ................
    ................
    ................
    ................
    ................
    ......@@@.......
    ......@@@.......
    ......@@@.......
    .....@@@........
    ....@@@.........
    ................

u+00b9:
onesuperior:
    ................
    ................
    ................
    ................
    ......@@@.......
    .....@@@@.......
    ....@@@@@.......
    ....@@@@@.......
    ......@@@.......
    ......@@@.......
    ......@@@.......
    ....@@@@@@@.....
    ....@@@@@@@.....
    ................
    ................
    ................
    ................
    ................
    ................
    ................
    ................
    ................
    ................
    ................
    ................
    ................
    ................
    ................
    ................
    ................
    ................
    ................

u+00ba:
ordmasculine:
    ................
    ................
    ....@@@@@@@.....
    ...@@@@@@@@@....
    ..@@@.....@@@...
    ..@@@.....@@@...
    ..@@@.....@@@...
    ..@@@.....@@@...
    ..@@@.....@@@...
    ..@@@.....@@@...
    ..@@@.....@@@...
    ...@@@@@@@@@....
    ....@@@@@@@.....
    ................
    ................
    ..@@@@@@@@@@@...
    ..@@@@@@@@@@@...
    ................
    ................
    ................
    ................
    ................
    ................
    ................
    ................
    ................
    ................
    ................
    ................
    ................
    ................
    ................

u+00bb:
guillemotright:
    ................
    ................
    ................
    ................
    ................
    ................
    ................
    ................
    ................
    ................
    ................
    ................
    .@@@..@@@.......
    ..@@@..@@@......
    ...@@@..@@@.....
    ....@@@..@@@....
    .....@@@..@@@...
    ......@@@..@@@..
    .......@@@..@@@.
    .......@@@..@@@.
    ......@@@..@@@..
    .....@@@..@@@...
    ....@@@..@@@....
    ...@@@..@@@.....
    ..@@@..@@@......
    .@@@..@@@.......
    ................
    ................
    ................
    ................
    ................
    ................

u+00bc:
onequarter:
    ................
    ................
    ................
    ................
    ................
    ................
    ....@@@.........
    ...@@@@.........
    ..@@@@@.........
    ....@@@.........
    ....@@@......@@.
    ....@@@.....@@@.
    ....@@@....@@@..
    ....@@@...@@@...
    ....@@@..@@@....
    ........@@@.....
    .......@@@..@@@.
    ......@@@..@@@@.
    .....@@@..@@@@@.
    ....@@@..@@@@@@.
    ...@@@..@@@.@@@.
    ..@@@..@@@..@@@.
    .@@@..@@@@@@@@@.
    .@@...@@@@@@@@@.
    ............@@@.
    ............@@@.
    ................
    ................
    ................
    ................
    ................
    ................

u+00bd:
onehalf:
    ................
    ................
    ................
    ................
    ................
    ................
    ...@@@..........
    ..@@@@..........
    .@@@@@.......@@.
    ...@@@......@@@.
    ...@@@.....@@@..
    ...@@@....@@@...
    ...@@@...@@@....
    ...@@@..@@@.....
    ...@@@.@@@......
    ......@@@.......
    .....@@@........
    ....@@@.@@@@@@..
    ...@@@.@@@@@@@@.
    ..@@@..@@@..@@@.
    .@@@...@@@..@@@.
    .@@........@@@..
    ..........@@@...
    .........@@@....
    ........@@@@@@@.
    .......@@@@@@@@.
    ................
    ................
    ................
    ................
    ................
    ................

u+00be:
threequarters:
    ................
    ................
    ................
    ................
    ................
    ................
    ..@@@@@@@.......
    .@@@@@@@@@......
    .@@@...@@@......
    ....@@@@@.......
    ....@@@@@.......
    .......@@@...@@.
    .@@@...@@@..@@@.
    .@@@@@@@@@.@@@..
    ..@@@@@@@.@@@...
    .........@@@....
    ........@@@.@@@.
    .......@@@.@@@@.
    ......@@@.@@@@@.
    .....@@@.@@@@@@.
    ....@@@.@@@.@@@.
    ...@@@.@@@..@@@.
    ..@@@.@@@@@@@@@.
    .@@@..@@@@@@@@@.
    .@@.........@@@.
    ............@@@.
    ................
    ................
    ................
    ................
    ................
    ................

u+00bf:
questiondown:
    ................
    ................
    ................
    ................
    ................
    ................
    ......@@@.......
    ......@@@.......
    ......@@@.......
    ......@@@.......
    ................
    ................
    ......@@@.......
    ......@@@.......
    ......@@@.......
    .....@@@........
    ....@@@.........
    ...@@@..........
    ..@@@...........
    .@@@.......@@@..
    .@@@.......@@@..
    .@@@.......@@@..
    .@@@.......@@@..
    .@@@@.....@@@@..
    ..@@@@@@@@@@@...
    ...@@@@@@@@@....
    ................
    ................
    ................
    ................
    ................
    ................

u+00c0:
Agrave:
    ................
    ...@@@..........
    ....@@@.........
    .....@@@........
    ......@@@.......
    ................
    ...@@@@@@@@@....
    ..@@@@@@@@@@@...
    .@@@@.....@@@@..
    .@@@.......@@@..
    .@@@.......@@@..
    .@@@.......@@@..
    .@@@.......@@@..
    .@@@.......@@@..
    .@@@.......@@@..
    .@@@.......@@@..
    .@@@@@@@@@@@@@..
    .@@@@@@@@@@@@@..
    .@@@.......@@@..
    .@@@.......@@@..
    .@@@.......@@@..
    .@@@.......@@@..
    .@@@.......@@@..
    .@@@.......@@@..
    .@@@.......@@@..
    .@@@.......@@@..
    ................
    ................
    ................
    ................
    ................
    ................

u+00c1:
Aacute:
    ................
    .........@@@....
    ........@@@.....
    .......@@@......
    ......@@@.......
    ................
    ...@@@@@@@@@....
    ..@@@@@@@@@@@...
    .@@@@.....@@@@..
    .@@@.......@@@..
    .@@@.......@@@..
    .@@@.......@@@..
    .@@@.......@@@..
    .@@@.......@@@..
    .@@@.......@@@..
    .@@@.......@@@..
    .@@@@@@@@@@@@@..
    .@@@@@@@@@@@@@..
    .@@@.......@@@..
    .@@@.......@@@..
    .@@@.......@@@..
    .@@@.......@@@..
    .@@@.......@@@..
    .@@@.......@@@..
    .@@@.......@@@..
    .@@@.......@@@..
    ................
    ................
    ................
    ................
    ................
    ................

u+00c2:
Acircumflex:
    ................
    ......@@@.......
    .....@@@@@......
    ....@@@.@@@.....
    ...@@@...@@@....
    ................
    ...@@@@@@@@@....
    ..@@@@@@@@@@@...
    .@@@@.....@@@@..
    .@@@.......@@@..
    .@@@.......@@@..
    .@@@.......@@@..
    .@@@.......@@@..
    .@@@.......@@@..
    .@@@.......@@@..
    .@@@.......@@@..
    .@@@@@@@@@@@@@..
    .@@@@@@@@@@@@@..
    .@@@.......@@@..
    .@@@.......@@@..
    .@@@.......@@@..
    .@@@.......@@@..
    .@@@.......@@@..
    .@@@.......@@@..
    .@@@.......@@@..
    .@@@.......@@@..
    ................
    ................
    ................
    ................
    ................
    ................

u+00c3:
Atilde:
    ................
    ...@@@@@..@@@...
    ..@@@.@@@.@@@...
    ..@@@.@@@.@@@...
    ..@@@..@@@@@....
    ................
    ...@@@@@@@@@....
    ..@@@@@@@@@@@...
    .@@@@.....@@@@..
    .@@@.......@@@..
    .@@@.......@@@..
    .@@@.......@@@..
    .@@@.......@@@..
    .@@@.......@@@..
    .@@@.......@@@..
    .@@@.......@@@..
    .@@@@@@@@@@@@@..
    .@@@@@@@@@@@@@..
    .@@@.......@@@..
    .@@@.......@@@..
    .@@@.......@@@..
    .@@@.......@@@..
    .@@@.......@@@..
    .@@@.......@@@..
    .@@@.......@@@..
    .@@@.......@@@..
    ................
    ................
    ................
    ................
    ................
    ................

u+00c4:
Adieresis:
    ................
    ...@@@...@@@....
    ...@@@...@@@....
    ...@@@...@@@....
    ...@@@...@@@....
    ................
    ...@@@@@@@@@....
    ..@@@@@@@@@@@...
    .@@@@.....@@@@..
    .@@@.......@@@..
    .@@@.......@@@..
    .@@@.......@@@..
    .@@@.......@@@..
    .@@@.......@@@..
    .@@@.......@@@..
    .@@@.......@@@..
    .@@@@@@@@@@@@@..
    .@@@@@@@@@@@@@..
    .@@@.......@@@..
    .@@@.......@@@..
    .@@@.......@@@..
    .@@@.......@@@..
    .@@@.......@@@..
    .@@@.......@@@..
    .@@@.......@@@..
    .@@@.......@@@..
    ................
    ................
    ................
    ................
    ................
    ................

u+00c5:
Aring:
    ................
    .....@@@@@......
    ....@@@.@@@.....
    ....@@@.@@@.....
    ....@@@.@@@.....
    .....@@@@@......
    ...@@@@@@@@@....
    ..@@@@@@@@@@@...
    .@@@@.....@@@@..
    .@@@.......@@@..
    .@@@.......@@@..
    .@@@.......@@@..
    .@@@.......@@@..
    .@@@.......@@@..
    .@@@.......@@@..
    .@@@.......@@@..
    .@@@@@@@@@@@@@..
    .@@@@@@@@@@@@@..
    .@@@.......@@@..
    .@@@.......@@@..
    .@@@.......@@@..
    .@@@.......@@@..
    .@@@.......@@@..
    .@@@.......@@@..
    .@@@.......@@@..
    .@@@.......@@@..
    ................
    ................
    ................
    ................
    ................
    ................

u+00c6:
AE:
    ................
    ................
    ................
    ................
    ................
    ................
    ..@@@@@@@@@@@@@.
    .@@@@@@@@@@@@@@.
    @@@@...@@@......
    @@@....@@@......
    @@@....@@@......
    @@@....@@@......
    @@@....@@@......
    @@@....@@@......
    @@@....@@@......
    @@@@@@@@@@@@@@@.
    @@@@@@@@@@@@@@@.
    @@@....@@@......
    @@@....@@@......
    @@@....@@@......
    @@@....@@@......
    @@@....@@@......
    @@@....@@@......
    @@@....@@@......
    @@@....@@@@@@@@.
    @@@....@@@@@@@@.
    ................
    ................
    ................
    ................
    ................
    ................

u+00c7:
Ccedilla:
    ................
    ................
    ................
    ................
    ................
    ................
    ...@@@@@@@@@....
    ..@@@@@@@@@@@...
    .@@@@.....@@@@..
    .@@@.......@@@..
    .@@@.......@@@..
    .@@@............
    .@@@............
    .@@@............
    .@@@............
    .@@@............
    .@@@............
    .@@@............
    .@@@............
    .@@@............
    .@@@............
    .@@@.......@@@..
    .@@@.......@@@..
    .@@@@.....@@@@..
    ..@@@@@@@@@@@...
    ...@@@@@@@@@....
    ......@@@.......
    ......@@@.......
    ......@@@.......
    .....@@@........
    ....@@@.........
    ................

u+00c8:
Egrave:
    ................
    ...@@@..........
    ....@@@.........
    .....@@@........
    ......@@@.......
    ................
    .@@@@@@@@@@@@@..
    .@@@@@@@@@@@@@..
    .@@@............
    .@@@............
    .@@@............
    .@@@............
    .@@@............
    .@@@............
    .@@@............
    .@@@@@@@@@@.....
    .@@@@@@@@@@.....
    .@@@............
    .@@@............
    .@@@............
    .@@@............
    .@@@............
    .@@@............
    .@@@............
    .@@@@@@@@@@@@@..
    .@@@@@@@@@@@@@..
    ................
    ................
    ................
    ................
    ................
    ................

u+00c9:
Eacute:
    ................
    .........@@@....
    ........@@@.....
    .......@@@......
    ......@@@.......
    ................
    .@@@@@@@@@@@@@..
    .@@@@@@@@@@@@@..
    .@@@............
    .@@@............
    .@@@............
    .@@@............
    .@@@............
    .@@@............
    .@@@............
    .@@@@@@@@@@.....
    .@@@@@@@@@@.....
    .@@@............
    .@@@............
    .@@@............
    .@@@............
    .@@@............
    .@@@............
    .@@@............
    .@@@@@@@@@@@@@..
    .@@@@@@@@@@@@@..
    ................
    ................
    ................
    ................
    ................
    ................

u+00ca:
Ecircumflex:
    ................
    ......@@@.......
    .....@@@@@......
    ....@@@.@@@.....
    ...@@@...@@@....
    ................
    .@@@@@@@@@@@@@..
    .@@@@@@@@@@@@@..
    .@@@............
    .@@@............
    .@@@............
    .@@@............
    .@@@............
    .@@@............
    .@@@............
    .@@@@@@@@@@.....
    .@@@@@@@@@@.....
    .@@@............
    .@@@............
    .@@@............
    .@@@............
    .@@@............
    .@@@............
    .@@@............
    .@@@@@@@@@@@@@..
    .@@@@@@@@@@@@@..
    ................
    ................
    ................
    ................
    ................
    ................

u+00cb:
Edieresis:
    ................
    ...@@@...@@@....
    ...@@@...@@@....
    ...@@@...@@@....
    ...@@@...@@@....
    ................
    .@@@@@@@@@@@@@..
    .@@@@@@@@@@@@@..
    .@@@............
    .@@@............
    .@@@............
    .@@@............
    .@@@............
    .@@@............
    .@@@............
    .@@@@@@@@@@.....
    .@@@@@@@@@@.....
    .@@@............
    .@@@............
    .@@@............
    .@@@............
    .@@@............
    .@@@............
    .@@@............
    .@@@@@@@@@@@@@..
    .@@@@@@@@@@@@@..
    ................
    ................
    ................
    ................
    ................
    ................

u+00cc:
Igrave:
    ................
    ...@@@..........
    ....@@@.........
    .....@@@........
    ......@@@.......
    ................
    ....@@@@@@@.....
    ....@@@@@@@.....
    ......@@@.......
    ......@@@.......
    ......@@@.......
    ......@@@.......
    ......@@@.......
    ......@@@.......
    ......@@@.......
    ......@@@.......
    ......@@@.......
    ......@@@.......
    ......@@@.......
    ......@@@.......
    ......@@@.......
    ......@@@.......
    ......@@@.......
    ......@@@.......
    ....@@@@@@@.....
    ....@@@@@@@.....
    ................
    ................
    ................
    ................
    ................
    ................

u+00cd:
Iacute:
    ................
    .........@@@....
    ........@@@.....
    .......@@@......
    ......@@@.......
    ................
    ....@@@@@@@.....
    ....@@@@@@@.....
    ......@@@.......
    ......@@@.......
    ......@@@.......
    ......@@@.......
    ......@@@.......
    ......@@@.......
    ......@@@.......
    ......@@@.......
    ......@@@.......
    ......@@@.......
    ......@@@.......
    ......@@@.......
    ......@@@.......
    ......@@@.......
    ......@@@.......
    ......@@@.......
    ....@@@@@@@.....
    ....@@@@@@@.....
    ................
    ................
    ................
    ................
    ................
    ................

u+00ce:
Icircumflex:
    ................
    ......@@@.......
    .....@@@@@......
    ....@@@.@@@.....
    ...@@@...@@@....
    ................
    ....@@@@@@@.....
    ....@@@@@@@.....
    ......@@@.......
    ......@@@.......
    ......@@@.......
    ......@@@.......
    ......@@@.......
    ......@@@.......
    ......@@@.......
    ......@@@.......
    ......@@@.......
    ......@@@.......
    ......@@@.......
    ......@@@.......
    ......@@@.......
    ......@@@.......
    ......@@@.......
    ......@@@.......
    ....@@@@@@@.....
    ....@@@@@@@.....
    ................
    ................
    ................
    ................
    ................
    ................

u+00cf:
Idieresis:
    ................
    ...@@@...@@@....
    ...@@@...@@@....
    ...@@@...@@@....
    ...@@@...@@@....
    ................
    ....@@@@@@@.....
    ....@@@@@@@.....
    ......@@@.......
    ......@@@.......
    ......@@@.......
    ......@@@.......
    ......@@@.......
    ......@@@.......
    ......@@@.......
    ......@@@.......
    ......@@@.......
    ......@@@.......
    ......@@@.......
    ......@@@.......
    ......@@@.......
    ......@@@.......
    ......@@@.......
    ......@@@.......
    ....@@@@@@@.....
    ....@@@@@@@.....
    ................
    ................
    ................
    ................
    ................
    ................

u+00d0:
Eth:
    ................
    ................
    ................
    ................
    ................
    ................
    .@@@@@@@@@......
    .@@@@@@@@@@@....
    .@@@.....@@@@...
    .@@@......@@@...
    .@@@.......@@@..
    .@@@.......@@@..
    .@@@.......@@@..
    .@@@.......@@@..
    .@@@.......@@@..
    @@@@@@@@@..@@@..
    @@@@@@@@@..@@@..
    .@@@.......@@@..
    .@@@.......@@@..
    .@@@.......@@@..
    .@@@.......@@@..
    .@@@.......@@@..
    .@@@......@@@...
    .@@@.....@@@@...
    .@@@@@@@@@@@....
    .@@@@@@@@@......
    ................
    ................
    ................
    ................
    ................
    ................

u+00d1:
Ntilde:
    ................
    ...@@@@@..@@@...
    ..@@@.@@@.@@@...
    ..@@@.@@@.@@@...
    ..@@@..@@@@@....
    ................
    .@@@.......@@@..
    .@@@.......@@@..
    .@@@.......@@@..
    .@@@.......@@@..
    .@@@.......@@@..
    .@@@@......@@@..
    .@@@@@.....@@@..
    .@@@@@@....@@@..
    .@@@.@@@...@@@..
    .@@@..@@@..@@@..
    .@@@...@@@.@@@..
    .@@@....@@@@@@..
    .@@@.....@@@@@..
    .@@@......@@@@..
    .@@@.......@@@..
    .@@@.......@@@..
    .@@@.......@@@..
    .@@@.......@@@..
    .@@@.......@@@..
    .@@@.......@@@..
    ................
    ................
    ................
    ................
    ................
    ................

u+00d2:
Ograve:
    ................
    ...@@@..........
    ....@@@.........
    .....@@@........
    ......@@@.......
    ................
    ...@@@@@@@@@....
    ..@@@@@@@@@@@...
    .@@@@.....@@@@..
    .@@@.......@@@..
    .@@@.......@@@..
    .@@@.......@@@..
    .@@@.......@@@..
    .@@@.......@@@..
    .@@@.......@@@..
    .@@@.......@@@..
    .@@@.......@@@..
    .@@@.......@@@..
    .@@@.......@@@..
    .@@@.......@@@..
    .@@@.......@@@..
    .@@@.......@@@..
    .@@@.......@@@..
    .@@@@.....@@@@..
    ..@@@@@@@@@@@...
    ...@@@@@@@@@....
    ................
    ................
    ................
    ................
    ................
    ................

u+00d3:
Oacute:
    ................
    .........@@@....
    ........@@@.....
    .......@@@......
    ......@@@.......
    ................
    ...@@@@@@@@@....
    ..@@@@@@@@@@@...
    .@@@@.....@@@@..
    .@@@.......@@@..
    .@@@.......@@@..
    .@@@.......@@@..
    .@@@.......@@@..
    .@@@.......@@@..
    .@@@.......@@@..
    .@@@.......@@@..
    .@@@.......@@@..
    .@@@.......@@@..
    .@@@.......@@@..
    .@@@.......@@@..
    .@@@.......@@@..
    .@@@.......@@@..
    .@@@.......@@@..
    .@@@@.....@@@@..
    ..@@@@@@@@@@@...
    ...@@@@@@@@@....
    ................
    ................
    ................
    ................
    ................
    ................

u+00d4:
Ocircumflex:
    ................
    ......@@@.......
    .....@@@@@......
    ....@@@.@@@.....
    ...@@@...@@@....
    ................
    ...@@@@@@@@@....
    ..@@@@@@@@@@@...
    .@@@@.....@@@@..
    .@@@.......@@@..
    .@@@.......@@@..
    .@@@.......@@@..
    .@@@.......@@@..
    .@@@.......@@@..
    .@@@.......@@@..
    .@@@.......@@@..
    .@@@.......@@@..
    .@@@.......@@@..
    .@@@.......@@@..
    .@@@.......@@@..
    .@@@.......@@@..
    .@@@.......@@@..
    .@@@.......@@@..
    .@@@@.....@@@@..
    ..@@@@@@@@@@@...
    ...@@@@@@@@@....
    ................
    ................
    ................
    ................
    ................
    ................

u+00d5:
Otilde:
    ................
    ...@@@@@..@@@...
    ..@@@.@@@.@@@...
    ..@@@.@@@.@@@...
    ..@@@..@@@@@....
    ................
    ...@@@@@@@@@....
    ..@@@@@@@@@@@...
    .@@@@.....@@@@..
    .@@@.......@@@..
    .@@@.......@@@..
    .@@@.......@@@..
    .@@@.......@@@..
    .@@@.......@@@..
    .@@@.......@@@..
    .@@@.......@@@..
    .@@@.......@@@..
    .@@@.......@@@..
    .@@@.......@@@..
    .@@@.......@@@..
    .@@@.......@@@..
    .@@@.......@@@..
    .@@@.......@@@..
    .@@@@.....@@@@..
    ..@@@@@@@@@@@...
    ...@@@@@@@@@....
    ................
    ................
    ................
    ................
    ................
    ................

u+00d6:
Odieresis:
    ................
    ...@@@...@@@....
    ...@@@...@@@....
    ...@@@...@@@....
    ...@@@...@@@....
    ................
    ...@@@@@@@@@....
    ..@@@@@@@@@@@...
    .@@@@.....@@@@..
    .@@@.......@@@..
    .@@@.......@@@..
    .@@@.......@@@..
    .@@@.......@@@..
    .@@@.......@@@..
    .@@@.......@@@..
    .@@@.......@@@..
    .@@@.......@@@..
    .@@@.......@@@..
    .@@@.......@@@..
    .@@@.......@@@..
    .@@@.......@@@..
    .@@@.......@@@..
    .@@@.......@@@..
    .@@@@.....@@@@..
    ..@@@@@@@@@@@...
    ...@@@@@@@@@....
    ................
    ................
    ................
    ................
    ................
    ................

u+00d7:
multiply:
    ................
    ................
    ................
    ................
    ................
    ................
    ................
    ................
    ................
    ................
    .@@@........@@@.
    ..@@@......@@@..
    ...@@@....@@@...
    ....@@@..@@@....
    .....@@@@@@.....
    ......@@@@......
    ......@@@@......
    .....@@@@@@.....
    ....@@@..@@@....
    ...@@@....@@@...
    ..@@@......@@@..
    .@@@........@@@.
    ................
    ................
    ................
    ................
    ................
    ................
    ................
    ................
    ................
    ................

u+00d8:
Oslash:
    ................
    ................
    ................
    ................
    ................
    ................
    ...@@@@@@@@@....
    ..@@@@@@@@@@@...
    .@@@@.....@@@@@.
    .@@@.......@@@@.
    .@@@.......@@@..
    .@@@......@@@@..
    .@@@.....@@@@@..
    .@@@....@@@@@@..
    .@@@...@@@.@@@..
    .@@@..@@@..@@@..
    .@@@.@@@...@@@..
    .@@@@@@....@@@..
    .@@@@@.....@@@..
    .@@@@......@@@..
    .@@@.......@@@..
    @@@@.......@@@..
    @@@@.......@@@..
    .@@@@.....@@@@..
    ..@@@@@@@@@@@...
    ...@@@@@@@@@....
    ................
    ................
    ................
    ................
    ................
    ................

u+00d9:
Ugrave:
    ................
    ...@@@..........
    ....@@@.........
    .....@@@........
    ......@@@.......
    ................
    .@@@.......@@@..
    .@@@.......@@@..
    .@@@.......@@@..
    .@@@.......@@@..
    .@@@.......@@@..
    .@@@.......@@@..
    .@@@.......@@@..
    .@@@.......@@@..
    .@@@.......@@@..
    .@@@.......@@@..
    .@@@.......@@@..
    .@@@.......@@@..
    .@@@.......@@@..
    .@@@.......@@@..
    .@@@.......@@@..
    .@@@.......@@@..
    .@@@.......@@@..
    .@@@@.....@@@@..
    ..@@@@@@@@@@@...
    ...@@@@@@@@@....
    ................
    ................
    ................
    ................
    ................
    ................

u+00da:
Uacute:
    ................
    .........@@@....
    ........@@@.....
    .......@@@......
    ......@@@.......
    ................
    .@@@.......@@@..
    .@@@.......@@@..
    .@@@.......@@@..
    .@@@.......@@@..
    .@@@.......@@@..
    .@@@.......@@@..
    .@@@.......@@@..
    .@@@.......@@@..
    .@@@.......@@@..
    .@@@.......@@@..
    .@@@.......@@@..
    .@@@.......@@@..
    .@@@.......@@@..
    .@@@.......@@@..
    .@@@.......@@@..
    .@@@.......@@@..
    .@@@.......@@@..
    .@@@@.....@@@@..
    ..@@@@@@@@@@@...
    ...@@@@@@@@@....
    ................
    ................
    ................
    ................
    ................
    ................

u+00db:
Ucircumflex:
    ................
    ......@@@.......
    .....@@@@@......
    ....@@@.@@@.....
    ...@@@...@@@....
    ................
    .@@@.......@@@..
    .@@@.......@@@..
    .@@@.......@@@..
    .@@@.......@@@..
    .@@@.......@@@..
    .@@@.......@@@..
    .@@@.......@@@..
    .@@@.......@@@..
    .@@@.......@@@..
    .@@@.......@@@..
    .@@@.......@@@..
    .@@@.......@@@..
    .@@@.......@@@..
    .@@@.......@@@..
    .@@@.......@@@..
    .@@@.......@@@..
    .@@@.......@@@..
    .@@@@.....@@@@..
    ..@@@@@@@@@@@...
    ...@@@@@@@@@....
    ................
    ................
    ................
    ................
    ................
    ................

u+00dc:
Udieresis:
    ................
    ...@@@...@@@....
    ...@@@...@@@....
    ...@@@...@@@....
    ...@@@...@@@....
    ................
    .@@@.......@@@..
    .@@@.......@@@..
    .@@@.......@@@..
    .@@@.......@@@..
    .@@@.......@@@..
    .@@@.......@@@..
    .@@@.......@@@..
    .@@@.......@@@..
    .@@@.......@@@..
    .@@@.......@@@..
    .@@@.......@@@..
    .@@@.......@@@..
    .@@@.......@@@..
    .@@@.......@@@..
    .@@@.......@@@..
    .@@@.......@@@..
    .@@@.......@@@..
    .@@@@.....@@@@..
    ..@@@@@@@@@@@...
    ...@@@@@@@@@....
    ................
    ................
    ................
    ................
    ................
    ................

u+00dd:
Yacute:
    ................
    .........@@@....
    ........@@@.....
    .......@@@......
    ......@@@.......
    ................
    .@@@.......@@@..
    .@@@.......@@@..
    .@@@.......@@@..
    ..@@@.....@@@...
    ..@@@.....@@@...
    ...@@@...@@@....
    ...@@@...@@@....
    ....@@@.@@@.....
    ....@@@.@@@.....
    .....@@@@@......
    .....@@@@@......
    ......@@@.......
    ......@@@.......
    ......@@@.......
    ......@@@.......
    ......@@@.......
    ......@@@.......
    ......@@@.......
    ......@@@.......
    ......@@@.......
    ................
    ................
    ................
    ................
    ................
    ................

u+00de:
Thorn:
    ................
    ................
    ................
    ................
    ................
    ................
    .@@@............
    .@@@............
    .@@@............
    .@@@............
    .@@@@@@@@@@@....
    .@@@@@@@@@@@@...
    .@@@......@@@@..
    .@@@.......@@@..
    .@@@.......@@@..
    .@@@.......@@@..
    .@@@.......@@@..
    .@@@.......@@@..
    .@@@.......@@@..
    .@@@......@@@@..
    .@@@@@@@@@@@@...
    .@@@@@@@@@@@....
    .@@@............
    .@@@............
    .@@@............
    .@@@............
    ................
    ................
    ................
    ................
    ................
    ................

u+00df:
germandbls:
    ................
    ................
    ................
    ................
    ................
    ................
    ..@@@@@@@@@.....
    .@@@@@@@@@@@....
    .@@@.....@@@@...
    .@@@......@@@...
    .@@@......@@@...
    .@@@......@@@...
    .@@@......@@@...
    .@@@.....@@@....
    .@@@@@@@@@@@....
    .@@@@@@@@@@@....
    .@@@......@@@...
    .@@@.......@@@..
    .@@@.......@@@..
    .@@@.......@@@..
    .@@@.......@@@..
    .@@@.......@@@..
    .@@@@......@@@..
    .@@@@@....@@@@..
    .@@@.@@@@@@@@...
    .@@@..@@@@@@....
    ................
    ................
    ................
    ................
    ................
    ................

u+00e0:
agrave:
    ................
    ................
    ................
    ................
    ................
    ................
    ...@@@..........
    ....@@@.........
    .....@@@........
    ......@@@.......
    ................
    ................
    ..@@@@@@@@@@....
    ..@@@@@@@@@@@...
    ..........@@@@..
    ...........@@@..
    ...........@@@..
    ...@@@@@@@@@@@..
    ..@@@@@@@@@@@@..
    .@@@@......@@@..
    .@@@.......@@@..
    .@@@.......@@@..
    .@@@.......@@@..
    .@@@@......@@@..
    ..@@@@@@@@@@@@..
    ...@@@@@@@@@@@..
    ................
    ................
    ................
    ................
    ................
    ................

u+00e1:
aacute:
    ................
    ................
    ................
    ................
    ................
    ................
    .........@@@....
    ........@@@.....
    .......@@@......
    ......@@@.......
    ................
    ................
    ..@@@@@@@@@@....
    ..@@@@@@@@@@@...
    ..........@@@@..
    ...........@@@..
    ...........@@@..
    ...@@@@@@@@@@@..
    ..@@@@@@@@@@@@..
    .@@@@......@@@..
    .@@@.......@@@..
    .@@@.......@@@..
    .@@@.......@@@..
    .@@@@......@@@..
    ..@@@@@@@@@@@@..
    ...@@@@@@@@@@@..
    ................
    ................
    ................
    ................
    ................
    ................

u+00e2:
acircumflex:
    ................
    ................
    ................
    ................
    ................
    ................
    ......@@@.......
    .....@@@@@......
    ....@@@.@@@.....
    ...@@@...@@@....
    ................
    ................
    ..@@@@@@@@@@....
    ..@@@@@@@@@@@...
    ..........@@@@..
    ...........@@@..
    ...........@@@..
    ...@@@@@@@@@@@..
    ..@@@@@@@@@@@@..
    .@@@@......@@@..
    .@@@.......@@@..
    .@@@.......@@@..
    .@@@.......@@@..
    .@@@@......@@@..
    ..@@@@@@@@@@@@..
    ...@@@@@@@@@@@..
    ................
    ................
    ................
    ................
    ................
    ................

u+00e3:
atilde:
    ................
    ................
    ................
    ................
    ................
    ................
    ...@@@@@..@@@...
    ..@@@.@@@.@@@...
    ..@@@.@@@.@@@...
    ..@@@..@@@@@....
    ................
    ................
    ..@@@@@@@@@@....
    ..@@@@@@@@@@@...
    ..........@@@@..
    ...........@@@..
    ...........@@@..
    ...@@@@@@@@@@@..
    ..@@@@@@@@@@@@..
    .@@@@......@@@..
    .@@@.......@@@..
    .@@@.......@@@..
    .@@@.......@@@..
    .@@@@......@@@..
    ..@@@@@@@@@@@@..
    ...@@@@@@@@@@@..
    ................
    ................
    ................
    ................
    ................
    ................

u+00e4:
adieresis:
    ................
    ................
    ................
    ................
    ................
    ................
    ...@@@...@@@....
    ...@@@...@@@....
    ...@@@...@@@....
    ...@@@...@@@....
    ................
    ................
    ..@@@@@@@@@@....
    ..@@@@@@@@@@@...
    ..........@@@@..
    ...........@@@..
    ...........@@@..
    ...@@@@@@@@@@@..
    ..@@@@@@@@@@@@..
    .@@@@......@@@..
    .@@@.......@@@..
    .@@@.......@@@..
    .@@@.......@@@..
    .@@@@......@@@..
    ..@@@@@@@@@@@@..
    ...@@@@@@@@@@@..
    ................
    ................
    ................
    ................
    ................
    ................

u+00e5:
aring:
    ................
    ................
    ................
    ................
    ................
    ................
    .....@@@@@......
    ....@@@.@@@.....
    ....@@@.@@@.....
    ....@@@.@@@.....
    .....@@@@@......
    ................
    ..@@@@@@@@@@....
    ..@@@@@@@@@@@...
    ..........@@@@..
    ...........@@@..
    ...........@@@..
    ...@@@@@@@@@@@..
    ..@@@@@@@@@@@@..
    .@@@@......@@@..
    .@@@.......@@@..
    .@@@.......@@@..
    .@@@.......@@@..
    .@@@@......@@@..
    ..@@@@@@@@@@@@..
    ...@@@@@@@@@@@..
    ................
    ................
    ................
    ................
    ................
    ................

u+00e6:
ae:
    ................
    ................
    ................
    ................
    ................
    ................
    ................
    ................
    ................
    ................
    ................
    ................
    .@@@@@@@@@@@@...
    .@@@@@@@@@@@@@..
    ......@@@..@@@@.
    ......@@@...@@@.
    ......@@@...@@@.
    ..@@@@@@@...@@@.
    .@@@@@@@@@@@@@@.
    @@@@..@@@@@@@@@.
    @@@...@@@.......
    @@@...@@@.......
    @@@...@@@.......
    @@@@..@@@@..@@@.
    .@@@@@@@@@@@@@@.
    ..@@@@@.@@@@@@..
    ................
    ................
    ................
    ................
    ................
    ................

u+00e7:
ccedilla:
    ................
    ................
    ................
    ................
    ................
    ................
    ................
    ................
    ................
    ................
    ................
    ................
    ...@@@@@@@@@....
    ..@@@@@@@@@@@...
    .@@@@.....@@@@..
    .@@@.......@@@..
    .@@@............
    .@@@............
    .@@@............
    .@@@............
    .@@@............
    .@@@............
    .@@@.......@@@..
    .@@@@.....@@@@..
    ..@@@@@@@@@@@...
    ...@@@@@@@@@....
    ......@@@.......
    ......@@@.......
    ......@@@.......
    .....@@@........
    ....@@@.........
    ................

u+00e8:
egrave:
    ................
    ................
    ................
    ................
    ................
    ................
    ...@@@..........
    ....@@@.........
    .....@@@........
    ......@@@.......
    ................
    ................
    ...@@@@@@@@@....
    ..@@@@@@@@@@@...
    .@@@@.....@@@@..
    .@@@.......@@@..
    .@@@.......@@@..
    .@@@.......@@@..
    .@@@@@@@@@@@@@..
    .@@@@@@@@@@@@@..
    .@@@............
    .@@@............
    .@@@............
    .@@@@......@@@..
    ..@@@@@@@@@@@@..
    ...@@@@@@@@@@...
    ................
    ................
    ................
    ................
    ................
    ................

u+00e9:
eacute:
    ................
    ................
    ................
    ................
    ................
    ................
    .........@@@....
    ........@@@.....
    .......@@@......
    ......@@@.......
    ................
    ................
    ...@@@@@@@@@....
    ..@@@@@@@@@@@...
    .@@@@.....@@@@..
    .@@@.......@@@..
    .@@@.......@@@..
    .@@@.......@@@..
    .@@@@@@@@@@@@@..
    .@@@@@@@@@@@@@..
    .@@@............
    .@@@............
    .@@@............
    .@@@@......@@@..
    ..@@@@@@@@@@@@..
    ...@@@@@@@@@@...
    ................
    ................
    ................
    ................
    ................
    ................

u+00ea:
ecircumflex:
    ................
    ................
    ................
    ................
    ................
    ................
    ......@@@.......
    .....@@@@@......
    ....@@@.@@@.....
    ...@@@...@@@....
    ................
    ................
    ...@@@@@@@@@....
    ..@@@@@@@@@@@...
    .@@@@.....@@@@..
    .@@@.......@@@..
    .@@@.......@@@..
    .@@@.......@@@..
    .@@@@@@@@@@@@@..
    .@@@@@@@@@@@@@..
    .@@@............
    .@@@............
    .@@@............
    .@@@@......@@@..
    ..@@@@@@@@@@@@..
    ...@@@@@@@@@@...
    ................
    ................
    ................
    ................
    ................
    ................

u+00eb:
edieresis:
    ................
    ................
    ................
    ................
    ................
    ................
    ...@@@...@@@....
    ...@@@...@@@....
    ...@@@...@@@....
    ...@@@...@@@....
    ................
    ................
    ...@@@@@@@@@....
    ..@@@@@@@@@@@...
    .@@@@.....@@@@..
    .@@@.......@@@..
    .@@@.......@@@..
    .@@@.......@@@..
    .@@@@@@@@@@@@@..
    .@@@@@@@@@@@@@..
    .@@@............
    .@@@............
    .@@@............
    .@@@@......@@@..
    ..@@@@@@@@@@@@..
    ...@@@@@@@@@@...
    ................
    ................
    ................
    ................
    ................
    ................

u+00ec:
igrave:
    ................
    ................
    ................
    ................
    ................
    ................
    ...@@@..........
    ....@@@.........
    .....@@@........
    ......@@@.......
    ................
    ................
    ....@@@@@.......
    ....@@@@@.......
    ......@@@.......
    ......@@@.......
    ......@@@.......
    ......@@@.......
    ......@@@.......
    ......@@@.......
    ......@@@.......
    ......@@@.......
    ......@@@.......
    ......@@@.......
    ....@@@@@@@.....
    ....@@@@@@@.....
    ................
    ................
    ................
    ................
    ................
    ................

u+00ed:
iacute:
    ................
    ................
    ................
    ................
    ................
    ................
    .........@@@....
    ........@@@.....
    .......@@@......
    ......@@@.......
    ................
    ................
    ....@@@@@.......
    ....@@@@@.......
    ......@@@.......
    ......@@@.......
    ......@@@.......
    ......@@@.......
    ......@@@.......
    ......@@@.......
    ......@@@.......
    ......@@@.......
    ......@@@.......
    ......@@@.......
    ....@@@@@@@.....
    ....@@@@@@@.....
    ................
    ................
    ................
    ................
    ................
    ................

u+00ee:
icircumflex:
    ................
    ................
    ................
    ................
    ................
    ................
    ......@@@.......
    .....@@@@@......
    ....@@@.@@@.....
    ...@@@...@@@....
    ................
    ................
    ....@@@@@.......
    ....@@@@@.......
    ......@@@.......
    ......@@@.......
    ......@@@.......
    ......@@@.......
    ......@@@.......
    ......@@@.......
    ......@@@.......
    ......@@@.......
    ......@@@.......
    ......@@@.......
    ....@@@@@@@.....
    ....@@@@@@@.....
    ................
    ................
    ................
    ................
    ................
    ................

u+00ef:
idieresis:
    ................
    ................
    ................
    ................
    ................
    ................
    ...@@@...@@@....
    ...@@@...@@@....
    ...@@@...@@@....
    ...@@@...@@@....
    ................
    ................
    ....@@@@@.......
    ....@@@@@.......
    ......@@@.......
    ......@@@.......
    ......@@@.......
    ......@@@.......
    ......@@@.......
    ......@@@.......
    ......@@@.......
    ......@@@.......
    ......@@@.......
    ......@@@.......
    ....@@@@@@@.....
    ....@@@@@@@.....
    ................
    ................
    ................
    ................
    ................
    ................

u+00f0:
eth:
    ................
    ................
    ................
    ................
    ................
    ................
    ...@@@.@@@......
    ....@@@@@.......
    ...@@@@@........
    ..@@@.@@@.......
    .......@@@......
    ........@@@.....
    ...@@@@@@@@@....
    ..@@@@@@@@@@@...
    .@@@@.....@@@@..
    .@@@.......@@@..
    .@@@.......@@@..
    .@@@.......@@@..
    .@@@.......@@@..
    .@@@.......@@@..
    .@@@.......@@@..
    .@@@.......@@@..
    .@@@.......@@@..
    .@@@@.....@@@@..
    ..@@@@@@@@@@@...
    ...@@@@@@@@@....
    ................
    ................
    ................
    ................
    ................
    ................

u+00f1:
ntilde:
    ................
    ................
    ................
    ................
    ................
    ................
    ...@@@@@..@@@...
    ..@@@.@@@.@@@...
    ..@@@.@@@.@@@...
    ..@@@..@@@@@....
    ................
    ................
    .@@@@@@@@@@@....
    .@@@@@@@@@@@@...
    .@@@......@@@@..
    .@@@.......@@@..
    .@@@.......@@@..
    .@@@.......@@@..
    .@@@.......@@@..
    .@@@.......@@@..
    .@@@.......@@@..
    .@@@.......@@@..
    .@@@.......@@@..
    .@@@.......@@@..
    .@@@.......@@@..
    .@@@.......@@@..
    ................
    ................
    ................
    ................
    ................
    ................

u+00f2:
ograve:
    ................
    ................
    ................
    ................
    ................
    ................
    ...@@@..........
    ....@@@.........
    .....@@@........
    ......@@@.......
    ................
    ................
    ...@@@@@@@@@....
    ..@@@@@@@@@@@...
    .@@@@.....@@@@..
    .@@@.......@@@..
    .@@@.......@@@..
    .@@@.......@@@..
    .@@@.......@@@..
    .@@@.......@@@..
    .@@@.......@@@..
    .@@@.......@@@..
    .@@@.......@@@..
    .@@@@.....@@@@..
    ..@@@@@@@@@@@...
    ...@@@@@@@@@....
    ................
    ................
    ................
    ................
    ................
    ................

u+00f3:
oacute:
    ................
    ................
    ................
    ................
    ................
    ................
    .........@@@....
    ........@@@.....
    .......@@@......
    ......@@@.......
    ................
    ................
    ...@@@@@@@@@....
    ..@@@@@@@@@@@...
    .@@@@.....@@@@..
    .@@@.......@@@..
    .@@@.......@@@..
    .@@@.......@@@..
    .@@@.......@@@..
    .@@@.......@@@..
    .@@@.......@@@..
    .@@@.......@@@..
    .@@@.......@@@..
    .@@@@.....@@@@..
    ..@@@@@@@@@@@...
    ...@@@@@@@@@....
    ................
    ................
    ................
    ................
    ................
    ................

u+00f4:
ocircumflex:
    ................
    ................
    ................
    ................
    ................
    ................
    ......@@@.......
    .....@@@@@......
    ....@@@.@@@.....
    ...@@@...@@@....
    ................
    ................
    ...@@@@@@@@@....
    ..@@@@@@@@@@@...
    .@@@@.....@@@@..
    .@@@.......@@@..
    .@@@.......@@@..
    .@@@.......@@@..
    .@@@.......@@@..
    .@@@.......@@@..
    .@@@.......@@@..
    .@@@.......@@@..
    .@@@.......@@@..
    .@@@@.....@@@@..
    ..@@@@@@@@@@@...
    ...@@@@@@@@@....
    ................
    ................
    ................
    ................
    ................
    ................

u+00f5:
otilde:
    ................
    ................
    ................
    ................
    ................
    ................
    ...@@@@@..@@@...
    ..@@@.@@@.@@@...
    ..@@@.@@@.@@@...
    ..@@@..@@@@@....
    ................
    ................
    ...@@@@@@@@@....
    ..@@@@@@@@@@@...
    .@@@@.....@@@@..
    .@@@.......@@@..
    .@@@.......@@@..
    .@@@.......@@@..
    .@@@.......@@@..
    .@@@.......@@@..
    .@@@.......@@@..
    .@@@.......@@@..
    .@@@.......@@@..
    .@@@@.....@@@@..
    ..@@@@@@@@@@@...
    ...@@@@@@@@@....
    ................
    ................
    ................
    ................
    ................
    ................

u+00f6:
odieresis:
    ................
    ................
    ................
    ................
    ................
    ................
    ...@@@...@@@....
    ...@@@...@@@....
    ...@@@...@@@....
    ...@@@...@@@....
    ................
    ................
    ...@@@@@@@@@....
    ..@@@@@@@@@@@...
    .@@@@.....@@@@..
    .@@@.......@@@..
    .@@@.......@@@..
    .@@@.......@@@..
    .@@@.......@@@..
    .@@@.......@@@..
    .@@@.......@@@..
    .@@@.......@@@..
    .@@@.......@@@..
    .@@@@.....@@@@..
    ..@@@@@@@@@@@...
    ...@@@@@@@@@....
    ................
    ................
    ................
    ................
    ................
    ................

u+00f7:
divide:
    ................
    ................
    ................
    ................
    ................
    ................
    ................
    ................
    ................
    ......@@@.......
    ......@@@.......
    ......@@@.......
    ......@@@.......
    ................
    ................
    .@@@@@@@@@@@@@..
    .@@@@@@@@@@@@@..
    ................
    ................
    ......@@@.......
    ......@@@.......
    ......@@@.......
    ......@@@.......
    ................
    ................
    ................
    ................
    ................
    ................
    ................
    ................
    ................

u+00f8:
oslash:
    ................
    ................
    ................
    ................
    ................
    ................
    ................
    ................
    ................
    ................
    ................
    ................
    ...@@@@@@@@@.@@.
    ..@@@@@@@@@@@@@.
    .@@@@.....@@@@..
    .@@@.....@@@@@..
    .@@@....@@@@@@..
    .@@@...@@@.@@@..
    .@@@..@@@..@@@..
    .@@@.@@@...@@@..
    .@@@@@@....@@@..
    .@@@@@.....@@@..
    .@@@@......@@@..
    .@@@@.....@@@@..
    @@@@@@@@@@@@@...
    @@.@@@@@@@@@....
    ................
    ................
    ................
    ................
    ................
    ................

u+00f9:
ugrave:
    ................
    ................
    ................
    ................
    ................
    ................
    ...@@@..........
    ....@@@.........
    .....@@@........
    ......@@@.......
    ................
    ................
    .@@@.......@@@..
    .@@@.......@@@..
    .@@@.......@@@..
    .@@@.......@@@..
    .@@@.......@@@..
    .@@@.......@@@..
    .@@@.......@@@..
    .@@@.......@@@..
    .@@@.......@@@..
    .@@@.......@@@..
    .@@@.......@@@..
    .@@@@......@@@..
    ..@@@@@@@@@@@@..
    ...@@@@@@@@@@@..
    ................
    ................
    ................
    ................
    ................
    ................

u+00fa:
uacute:
    ................
    ................
    ................
    ................
    ................
    ................
    .........@@@....
    ........@@@.....
    .......@@@......
    ......@@@.......
    ................
    ................
    .@@@.......@@@..
    .@@@.......@@@..
    .@@@.......@@@..
    .@@@.......@@@..
    .@@@.......@@@..
    .@@@.......@@@..
    .@@@.......@@@..
    .@@@.......@@@..
    .@@@.......@@@..
    .@@@.......@@@..
    .@@@.......@@@..
    .@@@@......@@@..
    ..@@@@@@@@@@@@..
    ...@@@@@@@@@@@..
    ................
    ................
    ................
    ................
    ................
    ................

u+00fb:
ucircumflex:
    ................
    ................
    ................
    ................
    ................
    ................
    ......@@@.......
    .....@@@@@......
    ....@@@.@@@.....
    ...@@@...@@@....
    ................
    ................
    .@@@.......@@@..
    .@@@.......@@@..
    .@@@.......@@@..
    .@@@.......@@@..
    .@@@.......@@@..
    .@@@.......@@@..
    .@@@.......@@@..
    .@@@.......@@@..
    .@@@.......@@@..
    .@@@.......@@@..
    .@@@.......@@@..
    .@@@@......@@@..
    ..@@@@@@@@@@@@..
    ...@@@@@@@@@@@..
    ................
    ................
    ................
    ................
    ................
    ................

u+00fc:
udieresis:
    ................
    ................
    ................
    ................
    ................
    ................
    ...@@@...@@@....
    ...@@@...@@@....
    ...@@@...@@@....
    ...@@@...@@@....
    ................
    ................
    .@@@.......@@@..
    .@@@.......@@@..
    .@@@.......@@@..
    .@@@.......@@@..
    .@@@.......@@@..
    .@@@.......@@@..
    .@@@.......@@@..
    .@@@.......@@@..
    .@@@.......@@@..
    .@@@.......@@@..
    .@@@.......@@@..
    .@@@@......@@@..
    ..@@@@@@@@@@@@..
    ...@@@@@@@@@@@..
    ................
    ................
    ................
    ................
    ................
    ................

u+00fd:
yacute:
    ................
    ................
    ................
    ................
    ................
    ................
    .........@@@....
    ........@@@.....
    .......@@@......
    ......@@@.......
    ................
    ................
    .@@@.......@@@..
    .@@@.......@@@..
    .@@@.......@@@..
    .@@@.......@@@..
    .@@@.......@@@..
    .@@@.......@@@..
    .@@@.......@@@..
    .@@@.......@@@..
    .@@@.......@@@..
    .@@@.......@@@..
    .@@@.......@@@..
    .@@@@......@@@..
    ..@@@@@@@@@@@@..
    ...@@@@@@@@@@@..
    ...........@@@..
    ...........@@@..
    ..........@@@@..
    ..@@@@@@@@@@@...
    ..@@@@@@@@@@....
    ................

u+00fe:
thorn:
    ................
    ................
    ................
    ................
    ................
    ................
    .@@@............
    .@@@............
    .@@@............
    .@@@............
    .@@@............
    .@@@............
    .@@@@@@@@@@@....
    .@@@@@@@@@@@@...
    .@@@......@@@@..
    .@@@.......@@@..
    .@@@.......@@@..
    .@@@.......@@@..
    .@@@.......@@@..
    .@@@.......@@@..
    .@@@.......@@@..
    .@@@.......@@@..
    .@@@.......@@@..
    .@@@......@@@@..
    .@@@@@@@@@@@@...
    .@@@@@@@@@@@....
    .@@@............
    .@@@............
    .@@@............
    .@@@............
    .@@@............
    ................

u+00ff:
ydieresis:
    ................
    ................
    ................
    ................
    ................
    ................
    ...@@@...@@@....
    ...@@@...@@@....
    ...@@@...@@@....
    ...@@@...@@@....
    ................
    ................
    .@@@.......@@@..
    .@@@.......@@@..
    .@@@.......@@@..
    .@@@.......@@@..
    .@@@.......@@@..
    .@@@.......@@@..
    .@@@.......@@@..
    .@@@.......@@@..
    .@@@.......@@@..
    .@@@.......@@@..
    .@@@.......@@@..
    .@@@@......@@@..
    ..@@@@@@@@@@@@..
    ...@@@@@@@@@@@..
    ...........@@@..
    ...........@@@..
    ..........@@@@..
    ..@@@@@@@@@@@...
    ..@@@@@@@@@@....
    ................

u+0100:
Amacron:
    ................
    ................
    ...@@@@@@@@@....
    ...@@@@@@@@@....
    ................
    ................
    ...@@@@@@@@@....
    ..@@@@@@@@@@@...
    .@@@@.....@@@@..
    .@@@.......@@@..
    .@@@.......@@@..
    .@@@.......@@@..
    .@@@.......@@@..
    .@@@.......@@@..
    .@@@.......@@@..
    .@@@.......@@@..
    .@@@@@@@@@@@@@..
    .@@@@@@@@@@@@@..
    .@@@.......@@@..
    .@@@.......@@@..
    .@@@.......@@@..
    .@@@.......@@@..
    .@@@.......@@@..
    .@@@.......@@@..
    .@@@.......@@@..
    .@@@.......@@@..
    ................
    ................
    ................
    ................
    ................
    ................

u+0101:
amacron:
    ................
    ................
    ................
    ................
    ................
    ................
    ................
    ................
    ...@@@@@@@@@....
    ...@@@@@@@@@....
    ................
    ................
    ..@@@@@@@@@@....
    ..@@@@@@@@@@@...
    ..........@@@@..
    ...........@@@..
    ...........@@@..
    ...@@@@@@@@@@@..
    ..@@@@@@@@@@@@..
    .@@@@......@@@..
    .@@@.......@@@..
    .@@@.......@@@..
    .@@@.......@@@..
    .@@@@......@@@..
    ..@@@@@@@@@@@@..
    ...@@@@@@@@@@@..
    ................
    ................
    ................
    ................
    ................
    ................

u+0102:
Abreve:
    ................
    ...@@@...@@@....
    ...@@@...@@@....
    ....@@@@@@@.....
    .....@@@@@......
    ................
    ...@@@@@@@@@....
    ..@@@@@@@@@@@...
    .@@@@.....@@@@..
    .@@@.......@@@..
    .@@@.......@@@..
    .@@@.......@@@..
    .@@@.......@@@..
    .@@@.......@@@..
    .@@@.......@@@..
    .@@@.......@@@..
    .@@@@@@@@@@@@@..
    .@@@@@@@@@@@@@..
    .@@@.......@@@..
    .@@@.......@@@..
    .@@@.......@@@..
    .@@@.......@@@..
    .@@@.......@@@..
    .@@@.......@@@..
    .@@@.......@@@..
    .@@@.......@@@..
    ................
    ................
    ................
    ................
    ................
    ................

u+0103:
abreve:
    ................
    ................
    ................
    ................
    ................
    ................
    ...@@@...@@@....
    ...@@@...@@@....
    ....@@@@@@@.....
    .....@@@@@......
    ................
    ................
    ..@@@@@@@@@@....
    ..@@@@@@@@@@@...
    ..........@@@@..
    ...........@@@..
    ...........@@@..
    ...@@@@@@@@@@@..
    ..@@@@@@@@@@@@..
    .@@@@......@@@..
    .@@@.......@@@..
    .@@@.......@@@..
    .@@@.......@@@..
    .@@@@......@@@..
    ..@@@@@@@@@@@@..
    ...@@@@@@@@@@@..
    ................
    ................
    ................
    ................
    ................
    ................

u+0104:
Aogonek:
    ................
    ................
    ................
    ................
    ................
    ................
    ...@@@@@@@@@....
    ..@@@@@@@@@@@...
    .@@@@.....@@@@..
    .@@@.......@@@..
    .@@@.......@@@..
    .@@@.......@@@..
    .@@@.......@@@..
    .@@@.......@@@..
    .@@@.......@@@..
    .@@@.......@@@..
    .@@@@@@@@@@@@@..
    .@@@@@@@@@@@@@..
    .@@@.......@@@..
    .@@@.......@@@..
    .@@@.......@@@..
    .@@@.......@@@..
    .@@@.......@@@..
    .@@@.......@@@..
    .@@@.......@@@..
    .@@@.......@@@..
    .........@@@@@..
    ........@@@@....
    ........@@@.....
    ........@@@@@@..
    .........@@@@@..
    ................

u+0105:
aogonek:
    ................
    ................
    ................
    ................
    ................
    ................
    ................
    ................
    ................
    ................
    ................
    ................
    ..@@@@@@@@@@....
    ..@@@@@@@@@@@...
    ..........@@@@..
    ...........@@@..
    ...........@@@..
    ...@@@@@@@@@@@..
    ..@@@@@@@@@@@@..
    .@@@@......@@@..
    .@@@.......@@@..
    .@@@.......@@@..
    .@@@.......@@@..
    .@@@@......@@@..
    ..@@@@@@@@@@@@..
    ...@@@@@@@@@@@..
    .........@@@@@..
    ........@@@@....
    ........@@@.....
    ........@@@@@@..
    .........@@@@@..
    ................

u+0106:
Cacute:
    ................
    .........@@@....
    ........@@@.....
    .......@@@......
    ......@@@.......
    ................
    ...@@@@@@@@@....
    ..@@@@@@@@@@@...
    .@@@@.....@@@@..
    .@@@.......@@@..
    .@@@.......@@@..
    .@@@............
    .@@@............
    .@@@............
    .@@@............
    .@@@............
    .@@@............
    .@@@............
    .@@@............
    .@@@............
    .@@@............
    .@@@.......@@@..
    .@@@.......@@@..
    .@@@@.....@@@@..
    ..@@@@@@@@@@@...
    ...@@@@@@@@@....
    ................
    ................
    ................
    ................
    ................
    ................

u+0107:
cacute:
    ................
    ................
    ................
    ................
    ................
    ................
    .........@@@....
    ........@@@.....
    .......@@@......
    ......@@@.......
    ................
    ................
    ...@@@@@@@@@....
    ..@@@@@@@@@@@...
    .@@@@.....@@@@..
    .@@@.......@@@..
    .@@@............
    .@@@............
    .@@@............
    .@@@............
    .@@@............
    .@@@............
    .@@@.......@@@..
    .@@@@.....@@@@..
    ..@@@@@@@@@@@...
    ...@@@@@@@@@....
    ................
    ................
    ................
    ................
    ................
    ................

u+0108:
Ccircumflex:
    ................
    ......@@@.......
    .....@@@@@......
    ....@@@.@@@.....
    ...@@@...@@@....
    ................
    ...@@@@@@@@@....
    ..@@@@@@@@@@@...
    .@@@@.....@@@@..
    .@@@.......@@@..
    .@@@.......@@@..
    .@@@............
    .@@@............
    .@@@............
    .@@@............
    .@@@............
    .@@@............
    .@@@............
    .@@@............
    .@@@............
    .@@@............
    .@@@.......@@@..
    .@@@.......@@@..
    .@@@@.....@@@@..
    ..@@@@@@@@@@@...
    ...@@@@@@@@@....
    ................
    ................
    ................
    ................
    ................
    ................

u+0109:
ccircumflex:
    ................
    ................
    ................
    ................
    ................
    ................
    ......@@@.......
    .....@@@@@......
    ....@@@.@@@.....
    ...@@@...@@@....
    ................
    ................
    ...@@@@@@@@@....
    ..@@@@@@@@@@@...
    .@@@@.....@@@@..
    .@@@.......@@@..
    .@@@............
    .@@@............
    .@@@............
    .@@@............
    .@@@............
    .@@@............
    .@@@.......@@@..
    .@@@@.....@@@@..
    ..@@@@@@@@@@@...
    ...@@@@@@@@@....
    ................
    ................
    ................
    ................
    ................
    ................

u+010a:
Cdotaccent:
    ................
    ......@@@.......
    ......@@@.......
    ......@@@.......
    ......@@@.......
    ................
    ...@@@@@@@@@....
    ..@@@@@@@@@@@...
    .@@@@.....@@@@..
    .@@@.......@@@..
    .@@@.......@@@..
    .@@@............
    .@@@............
    .@@@............
    .@@@............
    .@@@............
    .@@@............
    .@@@............
    .@@@............
    .@@@............
    .@@@............
    .@@@.......@@@..
    .@@@.......@@@..
    .@@@@.....@@@@..
    ..@@@@@@@@@@@...
    ...@@@@@@@@@....
    ................
    ................
    ................
    ................
    ................
    ................

u+010b:
cdotaccent:
    ................
    ................
    ................
    ................
    ................
    ................
    ......@@@.......
    ......@@@.......
    ......@@@.......
    ......@@@.......
    ................
    ................
    ...@@@@@@@@@....
    ..@@@@@@@@@@@...
    .@@@@.....@@@@..
    .@@@.......@@@..
    .@@@............
    .@@@............
    .@@@............
    .@@@............
    .@@@............
    .@@@............
    .@@@.......@@@..
    .@@@@.....@@@@..
    ..@@@@@@@@@@@...
    ...@@@@@@@@@....
    ................
    ................
    ................
    ................
    ................
    ................

u+010c:
Ccaron:
    ................
    ...@@@...@@@....
    ....@@@.@@@.....
    .....@@@@@......
    ......@@@.......
    ................
    ...@@@@@@@@@....
    ..@@@@@@@@@@@...
    .@@@@.....@@@@..
    .@@@.......@@@..
    .@@@.......@@@..
    .@@@............
    .@@@............
    .@@@............
    .@@@............
    .@@@............
    .@@@............
    .@@@............
    .@@@............
    .@@@............
    .@@@............
    .@@@.......@@@..
    .@@@.......@@@..
    .@@@@.....@@@@..
    ..@@@@@@@@@@@...
    ...@@@@@@@@@....
    ................
    ................
    ................
    ................
    ................
    ................

u+010d:
ccaron:
    ................
    ................
    ................
    ................
    ................
    ................
    ...@@@...@@@....
    ....@@@.@@@.....
    .....@@@@@......
    ......@@@.......
    ................
    ................
    ...@@@@@@@@@....
    ..@@@@@@@@@@@...
    .@@@@.....@@@@..
    .@@@.......@@@..
    .@@@............
    .@@@............
    .@@@............
    .@@@............
    .@@@............
    .@@@............
    .@@@.......@@@..
    .@@@@.....@@@@..
    ..@@@@@@@@@@@...
    ...@@@@@@@@@....
    ................
    ................
    ................
    ................
    ................
    ................

u+010e:
Dcaron:
    ................
    ...@@@...@@@....
    ....@@@.@@@.....
    .....@@@@@......
    ......@@@.......
    ................
    .@@@@@@@@@......
    .@@@@@@@@@@@....
    .@@@.....@@@@...
    .@@@......@@@...
    .@@@.......@@@..
    .@@@.......@@@..
    .@@@.......@@@..
    .@@@.......@@@..
    .@@@.......@@@..
    .@@@.......@@@..
    .@@@.......@@@..
    .@@@.......@@@..
    .@@@.......@@@..
    .@@@.......@@@..
    .@@@.......@@@..
    .@@@.......@@@..
    .@@@......@@@...
    .@@@.....@@@@...
    .@@@@@@@@@@@....
    .@@@@@@@@@......
    ................
    ................
    ................
    ................
    ................
    ................

u+010f:
dcaron:
    ................
    ...@@@...@@@....
    ....@@@.@@@.....
    .....@@@@@......
    ......@@@.......
    ................
    ...........@@@..
    ...........@@@..
    ...........@@@..
    ...........@@@..
    ...........@@@..
    ...........@@@..
    ...@@@@@@@@@@@..
    ..@@@@@@@@@@@@..
    .@@@@......@@@..
    .@@@.......@@@..
    .@@@.......@@@..
    .@@@.......@@@..
    .@@@.......@@@..
    .@@@.......@@@..
    .@@@.......@@@..
    .@@@.......@@@..
    .@@@.......@@@..
    .@@@@......@@@..
    ..@@@@@@@@@@@@..
    ...@@@@@@@@@@@..
    ................
    ................
    ................
    ................
    ................
    ................

u+0110:
Dcroat:
    ................
    ................
    ................
    ................
    ................
    ................
    .@@@@@@@@@......
    .@@@@@@@@@@@....
    .@@@.....@@@@...
    .@@@......@@@...
    .@@@.......@@@..
    .@@@.......@@@..
    .@@@.......@@@..
    .@@@.......@@@..
    .@@@.......@@@..
    @@@@@@@@@..@@@..
    @@@@@@@@@..@@@..
    .@@@.......@@@..
    .@@@.......@@@..
    .@@@.......@@@..
    .@@@.......@@@..
    .@@@.......@@@..
    .@@@......@@@...
    .@@@.....@@@@...
    .@@@@@@@@@@@....
    .@@@@@@@@@......
    ................
    ................
    ................
    ................
    ................
    ................

u+0111:
dcroat:
    ................
    ................
    ................
    ................
    ................
    ................
    ...........@@@..
    ...........@@@..
    ......@@@@@@@@@@
    ......@@@@@@@@@@
    ...........@@@..
    ...........@@@..
    ...@@@@@@@@@@@..
    ..@@@@@@@@@@@@..
    .@@@@......@@@..
    .@@@.......@@@..
    .@@@.......@@@..
    .@@@.......@@@..
    .@@@.......@@@..
    .@@@.......@@@..
    .@@@.......@@@..
    .@@@.......@@@..
    .@@@.......@@@..
    .@@@@......@@@..
    ..@@@@@@@@@@@@..
    ...@@@@@@@@@@@..
    ................
    ................
    ................
    ................
    ................
    ................

u+0112:
Emacron:
    ................
    ................
    ...@@@@@@@@@....
    ...@@@@@@@@@....
    ................
    ................
    .@@@@@@@@@@@@@..
    .@@@@@@@@@@@@@..
    .@@@............
    .@@@............
    .@@@............
    .@@@............
    .@@@............
    .@@@............
    .@@@............
    .@@@@@@@@@@.....
    .@@@@@@@@@@.....
    .@@@............
    .@@@............
    .@@@............
    .@@@............
    .@@@............
    .@@@............
    .@@@............
    .@@@@@@@@@@@@@..
    .@@@@@@@@@@@@@..
    ................
    ................
    ................
    ................
    ................
    ................

u+0113:
emacron:
    ................
    ................
    ................
    ................
    ................
    ................
    ................
    ................
    ...@@@@@@@@@....
    ...@@@@@@@@@....
    ................
    ................
    ...@@@@@@@@@....
    ..@@@@@@@@@@@...
    .@@@@.....@@@@..
    .@@@.......@@@..
    .@@@.......@@@..
    .@@@.......@@@..
    .@@@@@@@@@@@@@..
    .@@@@@@@@@@@@@..
    .@@@............
    .@@@............
    .@@@............
    .@@@@......@@@..
    ..@@@@@@@@@@@@..
    ...@@@@@@@@@@...
    ................
    ................
    ................
    ................
    ................
    ................

u+0114:
Ebreve:
    ................
    ...@@@...@@@....
    ...@@@...@@@....
    ....@@@@@@@.....
    .....@@@@@......
    ................
    .@@@@@@@@@@@@@..
    .@@@@@@@@@@@@@..
    .@@@............
    .@@@............
    .@@@............
    .@@@............
    .@@@............
    .@@@............
    .@@@............
    .@@@@@@@@@@.....
    .@@@@@@@@@@.....
    .@@@............
    .@@@............
    .@@@............
    .@@@............
    .@@@............
    .@@@............
    .@@@............
    .@@@@@@@@@@@@@..
    .@@@@@@@@@@@@@..
    ................
    ................
    ................
    ................
    ................
    ................

u+0115:
ebreve:
    ................
    ................
    ................
    ................
    ................
    ................
    ...@@@...@@@....
    ...@@@...@@@....
    ....@@@@@@@.....
    .....@@@@@......
    ................
    ................
    ...@@@@@@@@@....
    ..@@@@@@@@@@@...
    .@@@@.....@@@@..
    .@@@.......@@@..
    .@@@.......@@@..
    .@@@.......@@@..
    .@@@@@@@@@@@@@..
    .@@@@@@@@@@@@@..
    .@@@............
    .@@@............
    .@@@............
    .@@@@......@@@..
    ..@@@@@@@@@@@@..
    ...@@@@@@@@@@...
    ................
    ................
    ................
    ................
    ................
    ................

u+0116:
Edotaccent:
    ................
    ......@@@.......
    ......@@@.......
    ......@@@.......
    ......@@@.......
    ................
    .@@@@@@@@@@@@@..
    .@@@@@@@@@@@@@..
    .@@@............
    .@@@............
    .@@@............
    .@@@............
    .@@@............
    .@@@............
    .@@@............
    .@@@@@@@@@@.....
    .@@@@@@@@@@.....
    .@@@............
    .@@@............
    .@@@............
    .@@@............
    .@@@............
    .@@@............
    .@@@............
    .@@@@@@@@@@@@@..
    .@@@@@@@@@@@@@..
    ................
    ................
    ................
    ................
    ................
    ................

u+0117:
edotaccent:
    ................
    ................
    ................
    ................
    ................
    ................
    ......@@@.......
    ......@@@.......
    ......@@@.......
    ......@@@.......
    ................
    ................
    ...@@@@@@@@@....
    ..@@@@@@@@@@@...
    .@@@@.....@@@@..
    .@@@.......@@@..
    .@@@.......@@@..
    .@@@.......@@@..
    .@@@@@@@@@@@@@..
    .@@@@@@@@@@@@@..
    .@@@............
    .@@@............
    .@@@............
    .@@@@......@@@..
    ..@@@@@@@@@@@@..
    ...@@@@@@@@@@...
    ................
    ................
    ................
    ................
    ................
    ................

u+0118:
Eogonek:
    ................
    ................
    ................
    ................
    ................
    ................
    .@@@@@@@@@@@@@..
    .@@@@@@@@@@@@@..
    .@@@............
    .@@@............
    .@@@............
    .@@@............
    .@@@............
    .@@@............
    .@@@............
    .@@@@@@@@@@.....
    .@@@@@@@@@@.....
    .@@@............
    .@@@............
    .@@@............
    .@@@............
    .@@@............
    .@@@............
    .@@@............
    .@@@@@@@@@@@@@..
    .@@@@@@@@@@@@@..
    .........@@@@@..
    ........@@@@....
    ........@@@.....
    ........@@@@@@..
    .........@@@@@..
    ................

u+0119:
eogonek:
    ................
    ................
    ................
    ................
    ................
    ................
    ................
    ................
    ................
    ................
    ................
    ................
    ...@@@@@@@@@....
    ..@@@@@@@@@@@...
    .@@@@.....@@@@..
    .@@@.......@@@..
    .@@@.......@@@..
    .@@@.......@@@..
    .@@@@@@@@@@@@@..
    .@@@@@@@@@@@@@..
    .@@@............
    .@@@............
    .@@@............
    .@@@@......@@@..
    ..@@@@@@@@@@@@..
    ...@@@@@@@@@@...
    ......@@@@......
    .....@@@@.......
    .....@@@........
    .....@@@@@@.....
    ......@@@@@.....
    ................

u+011a:
Ecaron:
    ................
    ...@@@...@@@....
    ....@@@.@@@.....
    .....@@@@@......
    ......@@@.......
    ................
    .@@@@@@@@@@@@@..
    .@@@@@@@@@@@@@..
    .@@@............
    .@@@............
    .@@@............
    .@@@............
    .@@@............
    .@@@............
    .@@@............
    .@@@@@@@@@@.....
    .@@@@@@@@@@.....
    .@@@............
    .@@@............
    .@@@............
    .@@@............
    .@@@............
    .@@@............
    .@@@............
    .@@@@@@@@@@@@@..
    .@@@@@@@@@@@@@..
    ................
    ................
    ................
    ................
    ................
    ................

u+011b:
ecaron:
    ................
    ................
    ................
    ................
    ................
    ................
    ...@@@...@@@....
    ....@@@.@@@.....
    .....@@@@@......
    ......@@@.......
    ................
    ................
    ...@@@@@@@@@....
    ..@@@@@@@@@@@...
    .@@@@.....@@@@..
    .@@@.......@@@..
    .@@@.......@@@..
    .@@@.......@@@..
    .@@@@@@@@@@@@@..
    .@@@@@@@@@@@@@..
    .@@@............
    .@@@............
    .@@@............
    .@@@@......@@@..
    ..@@@@@@@@@@@@..
    ...@@@@@@@@@@...
    ................
    ................
    ................
    ................
    ................
    ................

u+011c:
Gcircumflex:
    ................
    ......@@@.......
    .....@@@@@......
    ....@@@.@@@.....
    ...@@@...@@@....
    ................
    ...@@@@@@@@@....
    ..@@@@@@@@@@@...
    .@@@@.....@@@@..
    .@@@.......@@@..
    .@@@.......@@@..
    .@@@............
    .@@@............
    .@@@............
    .@@@............
    .@@@...@@@@@@@..
    .@@@...@@@@@@@..
    .@@@.......@@@..
    .@@@.......@@@..
    .@@@.......@@@..
    .@@@.......@@@..
    .@@@.......@@@..
    .@@@.......@@@..
    .@@@@.....@@@@..
    ..@@@@@@@@@@@...
    ...@@@@@@@@@....
    ................
    ................
    ................
    ................
    ................
    ................

u+011d:
gcircumflex:
    ................
    ................
    ................
    ................
    ................
    ................
    ......@@@.......
    .....@@@@@......
    ....@@@.@@@.....
    ...@@@...@@@....
    ................
    ................
    ...@@@@@@@@@@@..
    ..@@@@@@@@@@@@..
    .@@@@......@@@..
    .@@@.......@@@..
    .@@@.......@@@..
    .@@@.......@@@..
    .@@@.......@@@..
    .@@@.......@@@..
    .@@@.......@@@..
    .@@@.......@@@..
    .@@@.......@@@..
    .@@@@......@@@..
    ..@@@@@@@@@@@@..
    ...@@@@@@@@@@@..
    ...........@@@..
    ...........@@@..
    ...........@@@..
    ..@@@@@@@@@@@...
    ..@@@@@@@@@@....
    ................

u+011e:
Gbreve:
    ................
    ...@@@...@@@....
    ...@@@...@@@....
    ....@@@@@@@.....
    .....@@@@@......
    ................
    ...@@@@@@@@@....
    ..@@@@@@@@@@@...
    .@@@@.....@@@@..
    .@@@.......@@@..
    .@@@.......@@@..
    .@@@............
    .@@@............
    .@@@............
    .@@@............
    .@@@...@@@@@@@..
    .@@@...@@@@@@@..
    .@@@.......@@@..
    .@@@.......@@@..
    .@@@.......@@@..
    .@@@.......@@@..
    .@@@.......@@@..
    .@@@.......@@@..
    .@@@@.....@@@@..
    ..@@@@@@@@@@@...
    ...@@@@@@@@@....
    ................
    ................
    ................
    ................
    ................
    ................

u+011f:
gbreve:
    ................
    ................
    ................
    ................
    ................
    ................
    ...@@@...@@@....
    ...@@@...@@@....
    ....@@@@@@@.....
    .....@@@@@......
    ................
    ................
    ...@@@@@@@@@@@..
    ..@@@@@@@@@@@@..
    .@@@@......@@@..
    .@@@.......@@@..
    .@@@.......@@@..
    .@@@.......@@@..
    .@@@.......@@@..
    .@@@.......@@@..
    .@@@.......@@@..
    .@@@.......@@@..
    .@@@.......@@@..
    .@@@@......@@@..
    ..@@@@@@@@@@@@..
    ...@@@@@@@@@@@..
    ...........@@@..
    ...........@@@..
    ...........@@@..
    ..@@@@@@@@@@@...
    ..@@@@@@@@@@....
    ................

u+0120:
Gdotaccent:
    ................
    ......@@@.......
    ......@@@.......
    ......@@@.......
    ......@@@.......
    ................
    ...@@@@@@@@@....
    ..@@@@@@@@@@@...
    .@@@@.....@@@@..
    .@@@.......@@@..
    .@@@.......@@@..
    .@@@............
    .@@@............
    .@@@............
    .@@@............
    .@@@...@@@@@@@..
    .@@@...@@@@@@@..
    .@@@.......@@@..
    .@@@.......@@@..
    .@@@.......@@@..
    .@@@.......@@@..
    .@@@.......@@@..
    .@@@.......@@@..
    .@@@@.....@@@@..
    ..@@@@@@@@@@@...
    ...@@@@@@@@@....
    ................
    ................
    ................
    ................
    ................
    ................

u+0121:
gdotaccent:
    ................
    ................
    ................
    ................
    ................
    ................
    .......@@@......
    .......@@@......
    .......@@@......
    .......@@@......
    ................
    ................
    ...@@@@@@@@@@@..
    ..@@@@@@@@@@@@..
    .@@@@......@@@..
    .@@@.......@@@..
    .@@@.......@@@..
    .@@@.......@@@..
    .@@@.......@@@..
    .@@@.......@@@..
    .@@@.......@@@..
    .@@@.......@@@..
    .@@@.......@@@..
    .@@@@......@@@..
    ..@@@@@@@@@@@@..
    ...@@@@@@@@@@@..
    ...........@@@..
    ...........@@@..
    ..........@@@@..
    ..@@@@@@@@@@@...
    ..@@@@@@@@@@....
    ................

u+0122:
Gcommaaccent:
    ................
    ................
    ................
    ................
    ................
    ................
    ...@@@@@@@@@....
    ..@@@@@@@@@@@...
    .@@@@.....@@@@..
    .@@@.......@@@..
    .@@@.......@@@..
    .@@@............
    .@@@............
    .@@@............
    .@@@............
    .@@@...@@@@@@@..
    .@@@...@@@@@@@..
    .@@@.......@@@..
    .@@@.......@@@..
    .@@@.......@@@..
    .@@@.......@@@..
    .@@@.......@@@..
    .@@@.......@@@..
    .@@@@.....@@@@..
    ..@@@@@@@@@@@...
    ...@@@@@@@@@....
    ................
    ......@@@.......
    ......@@@.......
    ......@@@.......
    .....@@@........
    ....@@@.........

u+0123:
gcommaaccent:
    ................
    ................
    ................
    ................
    ................
    ................
    .........@@@....
    ........@@@.....
    .......@@@......
    .......@@@......
    .......@@@......
    ................
    ...@@@@@@@@@@@..
    ..@@@@@@@@@@@@..
    .@@@@......@@@..
    .@@@.......@@@..
    .@@@.......@@@..
    .@@@.......@@@..
    .@@@.......@@@..
    .@@@.......@@@..
    .@@@.......@@@..
    .@@@.......@@@..
    .@@@.......@@@..
    .@@@@......@@@..
    ..@@@@@@@@@@@@..
    ...@@@@@@@@@@@..
    ...........@@@..
    ...........@@@..
    ...........@@@..
    ..@@@@@@@@@@@...
    ..@@@@@@@@@@....
    ................

u+0124:
Hcircumflex:
    ................
    ......@@@.......
    .....@@@@@......
    ....@@@.@@@.....
    ...@@@...@@@....
    ................
    .@@@.......@@@..
    .@@@.......@@@..
    .@@@.......@@@..
    .@@@.......@@@..
    .@@@.......@@@..
    .@@@.......@@@..
    .@@@.......@@@..
    .@@@.......@@@..
    .@@@.......@@@..
    .@@@@@@@@@@@@@..
    .@@@@@@@@@@@@@..
    .@@@.......@@@..
    .@@@.......@@@..
    .@@@.......@@@..
    .@@@.......@@@..
    .@@@.......@@@..
    .@@@.......@@@..
    .@@@.......@@@..
    .@@@.......@@@..
    .@@@.......@@@..
    ................
    ................
    ................
    ................
    ................
    ................

u+0125:
hcircumflex:
    ................
    ......@@@.......
    .....@@@@@......
    ....@@@.@@@.....
    ...@@@...@@@....
    ................
    .@@@............
    .@@@............
    .@@@............
    .@@@............
    .@@@............
    .@@@............
    .@@@@@@@@@@@....
    .@@@@@@@@@@@@...
    .@@@......@@@@..
    .@@@.......@@@..
    .@@@.......@@@..
    .@@@.......@@@..
    .@@@.......@@@..
    .@@@.......@@@..
    .@@@.......@@@..
    .@@@.......@@@..
    .@@@.......@@@..
    .@@@.......@@@..
    .@@@.......@@@..
    .@@@.......@@@..
    ................
    ................
    ................
    ................
    ................
    ................

u+0126:
Hbar:
    ................
    ................
    ................
    ................
    ................
    ................
    .@@@.......@@@..
    .@@@.......@@@..
    .@@@.......@@@..
    @@@@@@@@@@@@@@@.
    @@@@@@@@@@@@@@@.
    .@@@.......@@@..
    .@@@.......@@@..
    .@@@.......@@@..
    .@@@.......@@@..
    .@@@@@@@@@@@@@..
    .@@@@@@@@@@@@@..
    .@@@.......@@@..
    .@@@.......@@@..
    .@@@.......@@@..
    .@@@.......@@@..
    .@@@.......@@@..
    .@@@.......@@@..
    .@@@.......@@@..
    .@@@.......@@@..
    .@@@.......@@@..
    ................
    ................
    ................
    ................
    ................
    ................

u+0127:
hbar:
    ................
    ................
    ................
    ................
    ................
    ................
    .@@@............
    .@@@............
    @@@@@@@@@.......
    @@@@@@@@@.......
    .@@@............
    .@@@............
    .@@@@@@@@@@@....
    .@@@@@@@@@@@@...
    .@@@......@@@@..
    .@@@.......@@@..
    .@@@.......@@@..
    .@@@.......@@@..
    .@@@.......@@@..
    .@@@.......@@@..
    .@@@.......@@@..
    .@@@.......@@@..
    .@@@.......@@@..
    .@@@.......@@@..
    .@@@.......@@@..
    .@@@.......@@@..
    ................
    ................
    ................
    ................
    ................
    ................

u+0128:
Itilde:
    ................
    ...@@@@@..@@@...
    ..@@@.@@@.@@@...
    ..@@@.@@@.@@@...
    ..@@@..@@@@@....
    ................
    ....@@@@@@@.....
    ....@@@@@@@.....
    ......@@@.......
    ......@@@.......
    ......@@@.......
    ......@@@.......
    ......@@@.......
    ......@@@.......
    ......@@@.......
    ......@@@.......
    ......@@@.......
    ......@@@.......
    ......@@@.......
    ......@@@.......
    ......@@@.......
    ......@@@.......
    ......@@@.......
    ......@@@.......
    ....@@@@@@@.....
    ....@@@@@@@.....
    ................
    ................
    ................
    ................
    ................
    ................

u+0129:
itilde:
    ................
    ................
    ................
    ................
    ................
    ................
    ...@@@@@..@@@...
    ..@@@.@@@.@@@...
    ..@@@.@@@.@@@...
    ..@@@..@@@@@....
    ................
    ................
    ....@@@@@.......
    ....@@@@@.......
    ......@@@.......
    ......@@@.......
    ......@@@.......
    ......@@@.......
    ......@@@.......
    ......@@@.......
    ......@@@.......
    ......@@@.......
    ......@@@.......
    ......@@@.......
    ....@@@@@@@.....
    ....@@@@@@@.....
    ................
    ................
    ................
    ................
    ................
    ................

u+012a:
Imacron:
    ................
    ................
    ...@@@@@@@@@....
    ...@@@@@@@@@....
    ................
    ................
    ....@@@@@@@.....
    ....@@@@@@@.....
    ......@@@.......
    ......@@@.......
    ......@@@.......
    ......@@@.......
    ......@@@.......
    ......@@@.......
    ......@@@.......
    ......@@@.......
    ......@@@.......
    ......@@@.......
    ......@@@.......
    ......@@@.......
    ......@@@.......
    ......@@@.......
    ......@@@.......
    ......@@@.......
    ....@@@@@@@.....
    ....@@@@@@@.....
    ................
    ................
    ................
    ................
    ................
    ................

u+012b:
imacron:
    ................
    ................
    ................
    ................
    ................
    ................
    ................
    ................
    ...@@@@@@@@@....
    ...@@@@@@@@@....
    ................
    ................
    ....@@@@@.......
    ....@@@@@.......
    ......@@@.......
    ......@@@.......
    ......@@@.......
    ......@@@.......
    ......@@@.......
    ......@@@.......
    ......@@@.......
    ......@@@.......
    ......@@@.......
    ......@@@.......
    ....@@@@@@@.....
    ....@@@@@@@.....
    ................
    ................
    ................
    ................
    ................
    ................

u+012c:
Ibreve:
    ................
    ...@@@...@@@....
    ...@@@...@@@....
    ....@@@@@@@.....
    .....@@@@@......
    ................
    ....@@@@@@@.....
    ....@@@@@@@.....
    ......@@@.......
    ......@@@.......
    ......@@@.......
    ......@@@.......
    ......@@@.......
    ......@@@.......
    ......@@@.......
    ......@@@.......
    ......@@@.......
    ......@@@.......
    ......@@@.......
    ......@@@.......
    ......@@@.......
    ......@@@.......
    ......@@@.......
    ......@@@.......
    ....@@@@@@@.....
    ....@@@@@@@.....
    ................
    ................
    ................
    ................
    ................
    ................

u+012d:
ibreve:
    ................
    ................
    ................
    ................
    ................
    ................
    ...@@@...@@@....
    ...@@@...@@@....
    ....@@@@@@@.....
    .....@@@@@......
    ................
    ................
    ....@@@@@.......
    ....@@@@@.......
    ......@@@.......
    ......@@@.......
    ......@@@.......
    ......@@@.......
    ......@@@.......
    ......@@@.......
    ......@@@.......
    ......@@@.......
    ......@@@.......
    ......@@@.......
    ....@@@@@@@.....
    ....@@@@@@@.....
    ................
    ................
    ................
    ................
    ................
    ................

u+012e:
Iogonek:
    ................
    ................
    ................
    ................
    ................
    ................
    ....@@@@@@@.....
    ....@@@@@@@.....
    ......@@@.......
    ......@@@.......
    ......@@@.......
    ......@@@.......
    ......@@@.......
    ......@@@.......
    ......@@@.......
    ......@@@.......
    ......@@@.......
    ......@@@.......
    ......@@@.......
    ......@@@.......
    ......@@@.......
    ......@@@.......
    ......@@@.......
    ......@@@.......
    ....@@@@@@@.....
    ....@@@@@@@.....
    ......@@@.......
    .....@@@@.......
    .....@@@........
    .....@@@@@@.....
    ......@@@@@.....
    ................

u+012f:
iogonek:
    ................
    ................
    ................
    ................
    ................
    ................
    ......@@@.......
    ......@@@.......
    ......@@@.......
    ......@@@.......
    ................
    ................
    ....@@@@@.......
    ....@@@@@.......
    ......@@@.......
    ......@@@.......
    ......@@@.......
    ......@@@.......
    ......@@@.......
    ......@@@.......
    ......@@@.......
    ......@@@.......
    ......@@@.......
    ......@@@.......
    ....@@@@@@@.....
    ....@@@@@@@.....
    ......@@@.......
    .....@@@@.......
    .....@@@........
    .....@@@@@@.....
    ......@@@@@.....
    ................

u+0130:
Idotaccent:
    ................
    ......@@@.......
    ......@@@.......
    ......@@@.......
    ......@@@.......
    ................
    ....@@@@@@@.....
    ....@@@@@@@.....
    ......@@@.......
    ......@@@.......
    ......@@@.......
    ......@@@.......
    ......@@@.......
    ......@@@.......
    ......@@@.......
    ......@@@.......
    ......@@@.......
    ......@@@.......
    ......@@@.......
    ......@@@.......
    ......@@@.......
    ......@@@.......
    ......@@@.......
    ......@@@.......
    ....@@@@@@@.....
    ....@@@@@@@.....
    ................
    ................
    ................
    ................
    ................
    ................

u+0131:
dotlessi:
    ................
    ................
    ................
    ................
    ................
    ................
    ................
    ................
    ................
    ................
    ................
    ................
    ....@@@@@.......
    ....@@@@@.......
    ......@@@.......
    ......@@@.......
    ......@@@.......
    ......@@@.......
    ......@@@.......
    ......@@@.......
    ......@@@.......
    ......@@@.......
    ......@@@.......
    ......@@@.......
    ....@@@@@@@.....
    ....@@@@@@@.....
    ................
    ................
    ................
    ................
    ................
    ................

u+0132:
IJ:
    ................
    ................
    ................
    ................
    ................
    ................
    @@@@@......@@@@@
    @@@@@......@@@@@
    .@@@........@@@.
    .@@@........@@@.
    .@@@........@@@.
    .@@@........@@@.
    .@@@........@@@.
    .@@@........@@@.
    .@@@........@@@.
    .@@@........@@@.
    .@@@........@@@.
    .@@@........@@@.
    .@@@........@@@.
    .@@@........@@@.
    .@@@..@@@...@@@.
    .@@@..@@@...@@@.
    .@@@..@@@...@@@.
    .@@@..@@@@.@@@@.
    @@@@@..@@@@@@@..
    @@@@@...@@@@@...
    ................
    ................
    ................
    ................
    ................
    ................

u+0133:
ij:
    ................
    ................
    ................
    ................
    ................
    ................
    .@@@........@@@.
    .@@@........@@@.
    .@@@........@@@.
    .@@@........@@@.
    ................
    ................
    @@@@......@@@@@.
    @@@@......@@@@@.
    .@@@........@@@.
    .@@@........@@@.
    .@@@........@@@.
    .@@@........@@@.
    .@@@........@@@.
    .@@@........@@@.
    .@@@........@@@.
    .@@@........@@@.
    .@@@........@@@.
    .@@@........@@@.
    @@@@@.......@@@.
    @@@@@.......@@@.
    ......@@@...@@@.
    ......@@@...@@@.
    ......@@@@.@@@@.
    .......@@@@@@@..
    ........@@@@@...
    ................

u+0134:
Jcircumflex:
    ................
    ..........@@@...
    .........@@@@@..
    ........@@@.@@@.
    .......@@@...@@@
    ................
    ........@@@@@@@.
    ........@@@@@@@.
    ..........@@@...
    ..........@@@...
    ..........@@@...
    ..........@@@...
    ..........@@@...
    ..........@@@...
    ..........@@@...
    ..........@@@...
    ..........@@@...
    ..........@@@...
    ..........@@@...
    ..........@@@...
    .@@@......@@@...
    .@@@......@@@...
    .@@@......@@@...
    .@@@@....@@@@...
    ..@@@@@@@@@@....
    ...@@@@@@@@.....
    ................
    ................
    ................
    ................
    ................
    ................

u+0135:
jcircumflex:
    ................
    ................
    ................
    ................
    ................
    ................
    ..........@@@...
    .........@@@@@..
    ........@@@.@@@.
    .......@@@...@@@
    ................
    ................
    ........@@@@@...
    ........@@@@@...
    ..........@@@...
    ..........@@@...
    ..........@@@...
    ..........@@@...
    ..........@@@...
    ..........@@@...
    ..........@@@...
    ..........@@@...
    ..........@@@...
    ..........@@@...
    ..........@@@...
    ..........@@@...
    ..@@@.....@@@...
    ..@@@.....@@@...
    ..@@@@...@@@@...
    ...@@@@@@@@@....
    ....@@@@@@@.....
    ................

u+0136:
Kcommaaccent:
    ................
    ................
    ................
    ................
    ................
    ................
    .@@@........@@..
    .@@@.......@@@..
    .@@@......@@@...
    .@@@.....@@@....
    .@@@....@@@.....
    .@@@...@@@......
    .@@@..@@@.......
    .@@@.@@@........
    .@@@@@@.........
    .@@@@@..........
    .@@@@@..........
    .@@@@@@.........
    .@@@.@@@........
    .@@@..@@@.......
    .@@@...@@@......
    .@@@....@@@.....
    .@@@.....@@@....
    .@@@......@@@...
    .@@@.......@@@..
    .@@@........@@..
    ................
    ......@@@.......
    ......@@@.......
    ......@@@.......
    .....@@@........
    ....@@@.........

u+0137:
kcommaaccent:
    ................
    ................
    ................
    ................
    ................
    ................
    ..@@@...........
    ..@@@...........
    ..@@@...........
    ..@@@...........
    ..@@@...........
    ..@@@...........
    ..@@@......@@@..
    ..@@@.....@@@...
    ..@@@....@@@....
    ..@@@...@@@.....
    ..@@@..@@@......
    ..@@@.@@@.......
    ..@@@@@@........
    ..@@@@@@........
    ..@@@.@@@.......
    ..@@@..@@@......
    ..@@@...@@@.....
    ..@@@....@@@....
    ..@@@.....@@@...
    ..@@@......@@@..
    ................
    ......@@@.......
    ......@@@.......
    ......@@@.......
    .....@@@........
    ....@@@.........

u+0138:
kgreenlandic:
    ................
    ................
    ................
    ................
    ................
    ................
    ................
    ................
    ................
    ................
    ................
    ................
    ..@@@......@@@..
    ..@@@.....@@@...
    ..@@@....@@@....
    ..@@@...@@@.....
    ..@@@..@@@......
    ..@@@.@@@.......
    ..@@@@@@........
    ..@@@@@@........
    ..@@@.@@@.......
    ..@@@..@@@......
    ..@@@...@@@.....
    ..@@@....@@@....
    ..@@@.....@@@...
    ..@@@......@@@..
    ................
    ................
    ................
    ................
    ................
    ................

u+0139:
Lacute:
    ................
    ....@@@.........
    ...@@@..........
    ..@@@...........
    .@@@............
    ................
    .@@@............
    .@@@............
    .@@@............
    .@@@............
    .@@@............
    .@@@............
    .@@@............
    .@@@............
    .@@@............
    .@@@............
    .@@@............
    .@@@............
    .@@@............
    .@@@............
    .@@@............
    .@@@............
    .@@@............
    .@@@............
    .@@@@@@@@@@@@@..
    .@@@@@@@@@@@@@..
    ................
    ................
    ................
    ................
    ................
    ................

u+013a:
lacute:
    ................
    .........@@@....
    ........@@@.....
    .......@@@......
    ......@@@.......
    ................
    ....@@@@@.......
    ....@@@@@.......
    ......@@@.......
    ......@@@.......
    ......@@@.......
    ......@@@.......
    ......@@@.......
    ......@@@.......
    ......@@@.......
    ......@@@.......
    ......@@@.......
    ......@@@.......
    ......@@@.......
    ......@@@.......
    ......@@@.......
    ......@@@.......
    ......@@@.......
    ......@@@.......
    ....@@@@@@@.....
    ....@@@@@@@.....
    ................
    ................
    ................
    ................
    ................
    ................

u+013b:
Lcommaaccent:
    ................
    ................
    ................
    ................
    ................
    ................
    .@@@............
    .@@@............
    .@@@............
    .@@@............
    .@@@............
    .@@@............
    .@@@............
    .@@@............
    .@@@............
    .@@@............
    .@@@............
    .@@@............
    .@@@............
    .@@@............
    .@@@............
    .@@@............
    .@@@............
    .@@@............
    .@@@@@@@@@@@@@..
    .@@@@@@@@@@@@@..
    ................
    ......@@@.......
    ......@@@.......
    ......@@@.......
    .....@@@........
    ....@@@.........

u+013c:
lcommaaccent:
    ................
    ................
    ................
    ................
    ................
    ................
    ....@@@@@.......
    ....@@@@@.......
    ......@@@.......
    ......@@@.......
    ......@@@.......
    ......@@@.......
    ......@@@.......
    ......@@@.......
    ......@@@.......
    ......@@@.......
    ......@@@.......
    ......@@@.......
    ......@@@.......
    ......@@@.......
    ......@@@.......
    ......@@@.......
    ......@@@.......
    ......@@@.......
    ....@@@@@@@.....
    ....@@@@@@@.....
    ................
    ......@@@.......
    ......@@@.......
    ......@@@.......
    .....@@@........
    ....@@@.........

u+013d:
Lcaron:
    ................
    ...@@@...@@@....
    ....@@@.@@@.....
    .....@@@@@......
    ......@@@.......
    ................
    .@@@............
    .@@@............
    .@@@............
    .@@@............
    .@@@............
    .@@@............
    .@@@............
    .@@@............
    .@@@............
    .@@@............
    .@@@............
    .@@@............
    .@@@............
    .@@@............
    .@@@............
    .@@@............
    .@@@............
    .@@@............
    .@@@@@@@@@@@@@..
    .@@@@@@@@@@@@@..
    ................
    ................
    ................
    ................
    ................
    ................

u+013e:
lcaron:
    ................
    ...@@@...@@@....
    ....@@@.@@@.....
    .....@@@@@......
    ......@@@.......
    ................
    ....@@@@@.......
    ....@@@@@.......
    ......@@@.......
    ......@@@.......
    ......@@@.......
    ......@@@.......
    ......@@@.......
    ......@@@.......
    ......@@@.......
    ......@@@.......
    ......@@@.......
    ......@@@.......
    ......@@@.......
    ......@@@.......
    ......@@@.......
    ......@@@.......
    ......@@@.......
    ......@@@.......
    ....@@@@@@@.....
    ....@@@@@@@.....
    ................
    ................
    ................
    ................
    ................
    ................

u+013f:
Ldot:
    ................
    ................
    ................
    ................
    ................
    ................
    .@@@............
    .@@@............
    .@@@............
    .@@@............
    .@@@............
    .@@@............
    .@@@............
    .@@@............
    .@@@.....@@@....
    .@@@.....@@@....
    .@@@.....@@@....
    .@@@.....@@@....
    .@@@............
    .@@@............
    .@@@............
    .@@@............
    .@@@............
    .@@@............
    .@@@@@@@@@@@@@..
    .@@@@@@@@@@@@@..
    ................
    ................
    ................
    ................
    ................
    ................

u+0140:
ldot:
    ................
    ................
    ................
    ................
    ................
    ................
    ....@@@@@.......
    ....@@@@@.......
    ......@@@.......
    ......@@@.......
    ......@@@.......
    ......@@@.......
    ......@@@.......
    ......@@@.......
    ......@@@....@@@
    ......@@@....@@@
    ......@@@....@@@
    ......@@@....@@@
    ......@@@.......
    ......@@@.......
    ......@@@.......
    ......@@@.......
    ......@@@.......
    ......@@@.......
    ....@@@@@@@.....
    ....@@@@@@@.....
    ................
    ................
    ................
    ................
    ................
    ................

u+0141:
Lslash:
    ................
    ................
    ................
    ................
    ................
    ................
    ..@@@...........
    ..@@@...........
    ..@@@...........
    ..@@@...........
    ..@@@...........
    ..@@@...........
    ..@@@...........
    ..@@@.@@@.......
    ..@@@@@@........
    ..@@@@@.........
    ..@@@@..........
    .@@@@...........
    @@@@@...........
    ..@@@...........
    ..@@@...........
    ..@@@...........
    ..@@@...........
    ..@@@...........
    ..@@@@@@@@@@@@@.
    ..@@@@@@@@@@@@@.
    ................
    ................
    ................
    ................
    ................
    ................

u+0142:
lslash:
    ................
    ................
    ................
    ................
    ................
    ................
    ....@@@@@.......
    ....@@@@@.......
    ......@@@.......
    ......@@@.......
    ......@@@.......
    ......@@@.......
    ......@@@.......
    ......@@@@@@....
    ......@@@@@.....
    ......@@@@......
    .....@@@@.......
    ....@@@@@.......
    ...@@@@@@.......
    ......@@@.......
    ......@@@.......
    ......@@@.......
    ......@@@.......
    ......@@@.......
    ....@@@@@@@.....
    ....@@@@@@@.....
    ................
    ................
    ................
    ................
    ................
    ................

u+0143:
Nacute:
    ................
    .........@@@....
    ........@@@.....
    .......@@@......
    ......@@@.......
    ................
    .@@@.......@@@..
    .@@@.......@@@..
    .@@@.......@@@..
    .@@@.......@@@..
    .@@@.......@@@..
    .@@@@......@@@..
    .@@@@@.....@@@..
    .@@@@@@....@@@..
    .@@@.@@@...@@@..
    .@@@..@@@..@@@..
    .@@@...@@@.@@@..
    .@@@....@@@@@@..
    .@@@.....@@@@@..
    .@@@......@@@@..
    .@@@.......@@@..
    .@@@.......@@@..
    .@@@.......@@@..
    .@@@.......@@@..
    .@@@.......@@@..
    .@@@.......@@@..
    ................
    ................
    ................
    ................
    ................
    ................

u+0144:
nacute:
    ................
    ................
    ................
    ................
    ................
    ................
    .........@@@....
    ........@@@.....
    .......@@@......
    ......@@@.......
    ................
    ................
    .@@@@@@@@@@@....
    .@@@@@@@@@@@@...
    .@@@......@@@@..
    .@@@.......@@@..
    .@@@.......@@@..
    .@@@.......@@@..
    .@@@.......@@@..
    .@@@.......@@@..
    .@@@.......@@@..
    .@@@.......@@@..
    .@@@.......@@@..
    .@@@.......@@@..
    .@@@.......@@@..
    .@@@.......@@@..
    ................
    ................
    ................
    ................
    ................
    ................

u+0145:
Ncommaaccent:
    ................
    ................
    ................
    ................
    ................
    ................
    .@@@.......@@@..
    .@@@.......@@@..
    .@@@.......@@@..
    .@@@.......@@@..
    .@@@.......@@@..
    .@@@@......@@@..
    .@@@@@.....@@@..
    .@@@@@@....@@@..
    .@@@.@@@...@@@..
    .@@@..@@@..@@@..
    .@@@...@@@.@@@..
    .@@@....@@@@@@..
    .@@@.....@@@@@..
    .@@@......@@@@..
    .@@@.......@@@..
    .@@@.......@@@..
    .@@@.......@@@..
    .@@@.......@@@..
    .@@@.......@@@..
    .@@@.......@@@..
    ................
    ......@@@.......
    ......@@@.......
    ......@@@.......
    .....@@@........
    ....@@@.........

u+0146:
ncommaaccent:
    ................
    ................
    ................
    ................
    ................
    ................
    ................
    ................
    ................
    ................
    ................
    ................
    .@@@@@@@@@@@....
    .@@@@@@@@@@@@...
    .@@@......@@@@..
    .@@@.......@@@..
    .@@@.......@@@..
    .@@@.......@@@..
    .@@@.......@@@..
    .@@@.......@@@..
    .@@@.......@@@..
    .@@@.......@@@..
    .@@@.......@@@..
    .@@@.......@@@..
    .@@@.......@@@..
    .@@@.......@@@..
    ................
    ......@@@.......
    ......@@@.......
    ......@@@.......
    .....@@@........
    ....@@@.........

u+0147:
Ncaron:
    ................
    ...@@@...@@@....
    ....@@@.@@@.....
    .....@@@@@......
    ......@@@.......
    ................
    .@@@.......@@@..
    .@@@.......@@@..
    .@@@.......@@@..
    .@@@.......@@@..
    .@@@.......@@@..
    .@@@@......@@@..
    .@@@@@.....@@@..
    .@@@@@@....@@@..
    .@@@.@@@...@@@..
    .@@@..@@@..@@@..
    .@@@...@@@.@@@..
    .@@@....@@@@@@..
    .@@@.....@@@@@..
    .@@@......@@@@..
    .@@@.......@@@..
    .@@@.......@@@..
    .@@@.......@@@..
    .@@@.......@@@..
    .@@@.......@@@..
    .@@@.......@@@..
    ................
    ................
    ................
    ................
    ................
    ................

u+0148:
ncaron:
    ................
    ................
    ................
    ................
    ................
    ................
    ...@@@...@@@....
    ....@@@.@@@.....
    .....@@@@@......
    ......@@@.......
    ................
    ................
    .@@@@@@@@@@@....
    .@@@@@@@@@@@@...
    .@@@......@@@@..
    .@@@.......@@@..
    .@@@.......@@@..
    .@@@.......@@@..
    .@@@.......@@@..
    .@@@.......@@@..
    .@@@.......@@@..
    .@@@.......@@@..
    .@@@.......@@@..
    .@@@.......@@@..
    .@@@.......@@@..
    .@@@.......@@@..
    ................
    ................
    ................
    ................
    ................
    ................

u+0149:
napostrophe:
    ................
    ................
    ................
    ................
    .@@@............
    .@@@............
    .@@@............
    .@@@............
    @@@.............
    @@@.............
    ................
    ................
    .@@@@@@@@@@@....
    .@@@@@@@@@@@@...
    .@@@......@@@@..
    .@@@.......@@@..
    .@@@.......@@@..
    .@@@.......@@@..
    .@@@.......@@@..
    .@@@.......@@@..
    .@@@.......@@@..
    .@@@.......@@@..
    .@@@.......@@@..
    .@@@.......@@@..
    .@@@.......@@@..
    .@@@.......@@@..
    ................
    ................
    ................
    ................
    ................
    ................

u+014a:
Eng:
    ................
    ................
    ................
    ................
    ................
    ................
    .@@@.......@@@..
    .@@@.......@@@..
    .@@@.......@@@..
    .@@@.......@@@..
    .@@@.......@@@..
    .@@@@......@@@..
    .@@@@@.....@@@..
    .@@@@@@....@@@..
    .@@@.@@@...@@@..
    .@@@..@@@..@@@..
    .@@@...@@@.@@@..
    .@@@....@@@@@@..
    .@@@.....@@@@@..
    .@@@......@@@@..
    .@@@.......@@@..
    .@@@.......@@@..
    .@@@.......@@@..
    .@@@.......@@@..
    .@@@.......@@@..
    .@@@.......@@@..
    ...........@@@..
    ...........@@@..
    ..........@@@@..
    .......@@@@@@...
    .......@@@@@....
    ................

u+014b:
eng:
    ................
    ................
    ................
    ................
    ................
    ................
    ................
    ................
    ................
    ................
    ................
    ................
    .@@@@@@@@@@@....
    .@@@@@@@@@@@@...
    .@@@......@@@@..
    .@@@.......@@@..
    .@@@.......@@@..
    .@@@.......@@@..
    .@@@.......@@@..
    .@@@.......@@@..
    .@@@.......@@@..
    .@@@.......@@@..
    .@@@.......@@@..
    .@@@.......@@@..
    .@@@.......@@@..
    .@@@.......@@@..
    ...........@@@..
    ...........@@@..
    ..........@@@@..
    .......@@@@@@...
    .......@@@@@....
    ................

u+014c:
Omacron:
    ................
    ................
    ...@@@@@@@@@....
    ...@@@@@@@@@....
    ................
    ................
    ...@@@@@@@@@....
    ..@@@@@@@@@@@...
    .@@@@.....@@@@..
    .@@@.......@@@..
    .@@@.......@@@..
    .@@@.......@@@..
    .@@@.......@@@..
    .@@@.......@@@..
    .@@@.......@@@..
    .@@@.......@@@..
    .@@@.......@@@..
    .@@@.......@@@..
    .@@@.......@@@..
    .@@@.......@@@..
    .@@@.......@@@..
    .@@@.......@@@..
    .@@@.......@@@..
    .@@@@.....@@@@..
    ..@@@@@@@@@@@...
    ...@@@@@@@@@....
    ................
    ................
    ................
    ................
    ................
    ................

u+014d:
omacron:
    ................
    ................
    ................
    ................
    ................
    ................
    ................
    ................
    ...@@@@@@@@@....
    ...@@@@@@@@@....
    ................
    ................
    ...@@@@@@@@@....
    ..@@@@@@@@@@@...
    .@@@@.....@@@@..
    .@@@.......@@@..
    .@@@.......@@@..
    .@@@.......@@@..
    .@@@.......@@@..
    .@@@.......@@@..
    .@@@.......@@@..
    .@@@.......@@@..
    .@@@.......@@@..
    .@@@@.....@@@@..
    ..@@@@@@@@@@@...
    ...@@@@@@@@@....
    ................
    ................
    ................
    ................
    ................
    ................

u+014e:
Obreve:
    ................
    ...@@@...@@@....
    ...@@@...@@@....
    ....@@@@@@@.....
    .....@@@@@......
    ................
    ...@@@@@@@@@....
    ..@@@@@@@@@@@...
    .@@@@.....@@@@..
    .@@@.......@@@..
    .@@@.......@@@..
    .@@@.......@@@..
    .@@@.......@@@..
    .@@@.......@@@..
    .@@@.......@@@..
    .@@@.......@@@..
    .@@@.......@@@..
    .@@@.......@@@..
    .@@@.......@@@..
    .@@@.......@@@..
    .@@@.......@@@..
    .@@@.......@@@..
    .@@@.......@@@..
    .@@@@.....@@@@..
    ..@@@@@@@@@@@...
    ...@@@@@@@@@....
    ................
    ................
    ................
    ................
    ................
    ................

u+014f:
obreve:
    ................
    ................
    ................
    ................
    ................
    ................
    ...@@@...@@@....
    ...@@@...@@@....
    ....@@@@@@@.....
    .....@@@@@......
    ................
    ................
    ...@@@@@@@@@....
    ..@@@@@@@@@@@...
    .@@@@.....@@@@..
    .@@@.......@@@..
    .@@@.......@@@..
    .@@@.......@@@..
    .@@@.......@@@..
    .@@@.......@@@..
    .@@@.......@@@..
    .@@@.......@@@..
    .@@@.......@@@..
    .@@@@.....@@@@..
    ..@@@@@@@@@@@...
    ...@@@@@@@@@....
    ................
    ................
    ................
    ................
    ................
    ................

u+0150:
Ohungarumlaut:
    ................
    ......@@@...@@@.
    .....@@@...@@@..
    ....@@@...@@@...
    ...@@@...@@@....
    ................
    ...@@@@@@@@@....
    ..@@@@@@@@@@@...
    .@@@@.....@@@@..
    .@@@.......@@@..
    .@@@.......@@@..
    .@@@.......@@@..
    .@@@.......@@@..
    .@@@.......@@@..
    .@@@.......@@@..
    .@@@.......@@@..
    .@@@.......@@@..
    .@@@.......@@@..
    .@@@.......@@@..
    .@@@.......@@@..
    .@@@.......@@@..
    .@@@.......@@@..
    .@@@.......@@@..
    .@@@@.....@@@@..
    ..@@@@@@@@@@@...
    ...@@@@@@@@@....
    ................
    ................
    ................
    ................
    ................
    ................

u+0151:
ohungarumlaut:
    ................
    ................
    ................
    ................
    ................
    ................
    ......@@@...@@@.
    .....@@@...@@@..
    ....@@@...@@@...
    ...@@@...@@@....
    ................
    ................
    ...@@@@@@@@@....
    ..@@@@@@@@@@@...
    .@@@@.....@@@@..
    .@@@.......@@@..
    .@@@.......@@@..
    .@@@.......@@@..
    .@@@.......@@@..
    .@@@.......@@@..
    .@@@.......@@@..
    .@@@.......@@@..
    .@@@.......@@@..
    .@@@@.....@@@@..
    ..@@@@@@@@@@@...
    ...@@@@@@@@@....
    ................
    ................
    ................
    ................
    ................
    ................

u+0152:
OE:
    ................
    ................
    ................
    ................
    ................
    ................
    ..@@@@@@@@@@@@@.
    .@@@@@@@@@@@@@@.
    @@@@...@@@......
    @@@....@@@......
    @@@....@@@......
    @@@....@@@......
    @@@....@@@......
    @@@....@@@......
    @@@....@@@......
    @@@....@@@@@@@@.
    @@@....@@@@@@@@.
    @@@....@@@......
    @@@....@@@......
    @@@....@@@......
    @@@....@@@......
    @@@....@@@......
    @@@....@@@......
    @@@@...@@@......
    .@@@@@@@@@@@@@@.
    ..@@@@@@@@@@@@@.
    ................
    ................
    ................
    ................
    ................
    ................

u+0153:
oe:
    ................
    ................
    ................
    ................
    ................
    ................
    ................
    ................
    ................
    ................
    ................
    ................
    ..@@@@@@@@@@@...
    .@@@@@@@@@@@@@..
    @@@@..@@@..@@@@.
    @@@...@@@...@@@.
    @@@...@@@...@@@.
    @@@...@@@...@@@.
    @@@...@@@@@@@@@.
    @@@...@@@@@@@@@.
    @@@...@@@.......
    @@@...@@@.......
    @@@...@@@.......
    @@@@..@@@...@@@.
    .@@@@@@@@@@@@@@.
    ..@@@@@@@@@@@@..
    ................
    ................
    ................
    ................
    ................
    ................

u+0154:
Racute:
    ................
    .........@@@....
    ........@@@.....
    .......@@@......
    ......@@@.......
    ................
    .@@@@@@@@@@@....
    .@@@@@@@@@@@@...
    .@@@......@@@@..
    .@@@.......@@@..
    .@@@.......@@@..
    .@@@.......@@@..
    .@@@.......@@@..
    .@@@.......@@@..
    .@@@.......@@@..
    .@@@......@@@@..
    .@@@@@@@@@@@@...
    .@@@@@@@@@@@....
    .@@@@@@.........
    .@@@.@@@........
    .@@@..@@@.......
    .@@@...@@@......
    .@@@....@@@.....
    .@@@.....@@@....
    .@@@......@@@...
    .@@@.......@@@..
    ................
    ................
    ................
    ................
    ................
    ................

u+0155:
racute:
    ................
    ................
    ................
    ................
    ................
    ................
    .........@@@....
    ........@@@.....
    .......@@@......
    ......@@@.......
    ................
    ................
    .@@@..@@@@@@@@..
    .@@@.@@@@@@@@@..
    .@@@@@@.........
    .@@@@@..........
    .@@@@...........
    .@@@............
    .@@@............
    .@@@............
    .@@@............
    .@@@............
    .@@@............
    .@@@............
    .@@@............
    .@@@............
    ................
    ................
    ................
    ................
    ................
    ................

u+0156:
Rcommaaccent:
    ................
    ................
    ................
    ................
    ................
    ................
    .@@@@@@@@@@@....
    .@@@@@@@@@@@@...
    .@@@......@@@@..
    .@@@.......@@@..
    .@@@.......@@@..
    .@@@.......@@@..
    .@@@.......@@@..
    .@@@.......@@@..
    .@@@.......@@@..
    .@@@......@@@@..
    .@@@@@@@@@@@@...
    .@@@@@@@@@@@....
    .@@@@@@.........
    .@@@.@@@........
    .@@@..@@@.......
    .@@@...@@@......
    .@@@....@@@.....
    .@@@.....@@@....
    .@@@......@@@...
    .@@@.......@@@..
    ................
    ......@@@.......
    ......@@@.......
    ......@@@.......
    .....@@@........
    ....@@@.........

u+0157:
rcommaaccent:
    ................
    ................
    ................
    ................
    ................
    ................
    ................
    ................
    ................
    ................
    ................
    ................
    ..@@@..@@@@@@@@.
    ..@@@.@@@@@@@@@.
    ..@@@@@@........
    ..@@@@@.........
    ..@@@@..........
    ..@@@...........
    ..@@@...........
    ..@@@...........
    ..@@@...........
    ..@@@...........
    ..@@@...........
    ..@@@...........
    ..@@@...........
    ..@@@...........
    ................
    ..@@@...........
    ..@@@...........
    ..@@@...........
    .@@@............
    @@@.............

u+0158:
Rcaron:
    ................
    ...@@@...@@@....
    ....@@@.@@@.....
    .....@@@@@......
    ......@@@.......
    ................
    .@@@@@@@@@@@....
    .@@@@@@@@@@@@...
    .@@@......@@@@..
    .@@@.......@@@..
    .@@@.......@@@..
    .@@@.......@@@..
    .@@@.......@@@..
    .@@@.......@@@..
    .@@@.......@@@..
    .@@@......@@@@..
    .@@@@@@@@@@@@...
    .@@@@@@@@@@@....
    .@@@@@@.........
    .@@@.@@@........
    .@@@..@@@.......
    .@@@...@@@......
    .@@@....@@@.....
    .@@@.....@@@....
    .@@@......@@@...
    .@@@.......@@@..
    ................
    ................
    ................
    ................
    ................
    ................

u+0159:
rcaron:
    ................
    ................
    ................
    ................
    ................
    ................
    ...@@@...@@@....
    ....@@@.@@@.....
    .....@@@@@......
    ......@@@.......
    ................
    ................
    .@@@..@@@@@@@@..
    .@@@.@@@@@@@@@..
    .@@@@@@.........
    .@@@@@..........
    .@@@@...........
    .@@@............
    .@@@............
    .@@@............
    .@@@............
    .@@@............
    .@@@............
    .@@@............
    .@@@............
    .@@@............
    ................
    ................
    ................
    ................
    ................
    ................

u+015a:
Sacute:
    ................
    .........@@@....
    ........@@@.....
    .......@@@......
    ......@@@.......
    ................
    ...@@@@@@@@@....
    ..@@@@@@@@@@@...
    .@@@@.....@@@@..
    .@@@.......@@@..
    .@@@.......@@@..
    .@@@............
    .@@@............
    .@@@............
    .@@@@...........
    ..@@@@@@@@@@....
    ...@@@@@@@@@@...
    ..........@@@@..
    ...........@@@..
    ...........@@@..
    ...........@@@..
    .@@@.......@@@..
    .@@@.......@@@..
    .@@@@.....@@@@..
    ..@@@@@@@@@@@...
    ...@@@@@@@@@....
    ................
    ................
    ................
    ................
    ................
    ................

u+015b:
sacute:
    ................
    ................
    ................
    ................
    ................
    ................
    .........@@@....
    ........@@@.....
    .......@@@......
    ......@@@.......
    ................
    ................
    ...@@@@@@@@@....
    ..@@@@@@@@@@@...
    .@@@@.....@@@@..
    .@@@............
    .@@@............
    .@@@@...........
    ..@@@@@@@@@@....
    ...@@@@@@@@@@...
    ..........@@@@..
    ...........@@@..
    ...........@@@..
    .@@@@.....@@@@..
    ..@@@@@@@@@@@...
    ...@@@@@@@@@....
    ................
    ................
    ................
    ................
    ................
    ................

u+015c:
Scircumflex:
    ................
    ......@@@.......
    .....@@@@@......
    ....@@@.@@@.....
    ...@@@...@@@....
    ................
    ...@@@@@@@@@....
    ..@@@@@@@@@@@...
    .@@@@.....@@@@..
    .@@@.......@@@..
    .@@@.......@@@..
    .@@@............
    .@@@............
    .@@@............
    .@@@@...........
    ..@@@@@@@@@@....
    ...@@@@@@@@@@...
    ..........@@@@..
    ...........@@@..
    ...........@@@..
    ...........@@@..
    .@@@.......@@@..
    .@@@.......@@@..
    .@@@@.....@@@@..
    ..@@@@@@@@@@@...
    ...@@@@@@@@@....
    ................
    ................
    ................
    ................
    ................
    ................

u+015d:
scircumflex:
    ................
    ................
    ................
    ................
    ................
    ................
    ......@@@.......
    .....@@@@@......
    ....@@@.@@@.....
    ...@@@...@@@....
    ................
    ................
    ...@@@@@@@@@....
    ..@@@@@@@@@@@...
    .@@@@.....@@@@..
    .@@@............
    .@@@............
    .@@@@...........
    ..@@@@@@@@@@....
    ...@@@@@@@@@@...
    ..........@@@@..
    ...........@@@..
    ...........@@@..
    .@@@@.....@@@@..
    ..@@@@@@@@@@@...
    ...@@@@@@@@@....
    ................
    ................
    ................
    ................
    ................
    ................

u+015e:
Scedilla:
    ................
    ................
    ................
    ................
    ................
    ................
    ...@@@@@@@@@....
    ..@@@@@@@@@@@...
    .@@@@.....@@@@..
    .@@@.......@@@..
    .@@@.......@@@..
    .@@@............
    .@@@............
    .@@@............
    .@@@@...........
    ..@@@@@@@@@@....
    ...@@@@@@@@@@...
    ..........@@@@..
    ...........@@@..
    ...........@@@..
    ...........@@@..
    .@@@.......@@@..
    .@@@.......@@@..
    .@@@@.....@@@@..
    ..@@@@@@@@@@@...
    ...@@@@@@@@@....
    ......@@@.......
    ......@@@.......
    ......@@@.......
    .....@@@........
    ....@@@.........
    ................

u+015f:
scedilla:
    ................
    ................
    ................
    ................
    ................
    ................
    ................
    ................
    ................
    ................
    ................
    ................
    ...@@@@@@@@@....
    ..@@@@@@@@@@@...
    .@@@@.....@@@@..
    .@@@............
    .@@@............
    .@@@@...........
    ..@@@@@@@@@@....
    ...@@@@@@@@@@...
    ..........@@@@..
    ...........@@@..
    ...........@@@..
    .@@@@.....@@@@..
    ..@@@@@@@@@@@...
    ...@@@@@@@@@....
    ......@@@.......
    ......@@@.......
    ......@@@.......
    .....@@@........
    ....@@@.........
    ................

u+0160:
Scaron:
    ................
    ...@@@...@@@....
    ....@@@.@@@.....
    .....@@@@@......
    ......@@@.......
    ................
    ...@@@@@@@@@....
    ..@@@@@@@@@@@...
    .@@@@.....@@@@..
    .@@@.......@@@..
    .@@@.......@@@..
    .@@@............
    .@@@............
    .@@@............
    .@@@@...........
    ..@@@@@@@@@@....
    ...@@@@@@@@@@...
    ..........@@@@..
    ...........@@@..
    ...........@@@..
    ...........@@@..
    .@@@.......@@@..
    .@@@.......@@@..
    .@@@@.....@@@@..
    ..@@@@@@@@@@@...
    ...@@@@@@@@@....
    ................
    ................
    ................
    ................
    ................
    ................

